<svg xmlns="http://www.w3.org/2000/svg" width="24.003" height="28.003" viewBox="0 0 24.003 28.003">
  <g id="Group_16830" data-name="Group 16830" transform="translate(-1784.001 -247)">
    <g id="pdf" transform="translate(1764.672 247.003)">
      <path id="Path_11744" data-name="Path 11744" d="M21.043,0H35.609l7.72,7.851v18.4A1.732,1.732,0,0,1,41.615,28H21.043a1.732,1.732,0,0,1-1.714-1.75V1.75A1.733,1.733,0,0,1,21.043,0Z" fill="#178f3c"/>
      <path id="Path_11745" data-name="Path 11745" d="M210.744,8.057l-6.057-.095a1.69,1.69,0,0,1-1.662-1.749V.174Z" transform="translate(-167.413 -0.177)" fill="#086023"/>
    </g>
    <g id="Group_16829" data-name="Group 16829" transform="translate(1789 259)">
      <path id="Path_11752" data-name="Path 11752" d="M186.08,351.172h-1.456l-1.032-1.525-1.032,1.525h-1.415l1.709-2.448-1.6-2.338h1.415l.923,1.395.923-1.395h1.429l-1.579,2.283Z" transform="translate(-181.144 -346.331)" fill="#fff"/>
      <path id="Path_11753" data-name="Path 11753" d="M246.757,350.154v1.019H243.51v-4.785h1.217v3.767Z" transform="translate(-237.876 -346.332)" fill="#fff"/>
      <path id="Path_11754" data-name="Path 11754" d="M287.863,346.315l-.458.95a3.565,3.565,0,0,0-1.531-.5c-.315,0-.526.116-.526.349,0,.827,2.53.356,2.53,2.085,0,.957-.848,1.463-1.914,1.463a3.569,3.569,0,0,1-2.188-.766l.472-.937a2.983,2.983,0,0,0,1.73.718c.383,0,.622-.143.622-.417,0-.848-2.529-.342-2.529-2.037,0-.882.759-1.443,1.908-1.443A3.591,3.591,0,0,1,287.863,346.315Z" transform="translate(-274.504 -345.782)" fill="#fff"/>
    </g>
  </g>
</svg>
