<svg id="messenger" xmlns="http://www.w3.org/2000/svg" width="36.501" height="36.501" viewBox="0 0 36.501 36.501">
  <path id="Path_11393" data-name="Path 11393" d="M18.25,0A18.253,18.253,0,0,0,2.42,27.336l-2.351,7.3a1.426,1.426,0,0,0,1.794,1.794l7.3-2.351A18.251,18.251,0,1,0,18.251,0Zm0,33.649A15.354,15.354,0,0,1,10.1,31.316a1.427,1.427,0,0,0-1.193-.148l-5.271,1.7,1.7-5.271A1.427,1.427,0,0,0,5.184,26.4,15.4,15.4,0,1,1,18.25,33.649Zm1.782-15.4a1.782,1.782,0,1,1-1.782-1.782A1.782,1.782,0,0,1,20.033,18.25Zm7.129,0a1.782,1.782,0,1,1-1.782-1.782A1.782,1.782,0,0,1,27.162,18.25Zm-14.258,0a1.782,1.782,0,1,1-1.782-1.782A1.782,1.782,0,0,1,12.9,18.25Zm0,0" fill="#fff"/>
</svg>
