<svg xmlns="http://www.w3.org/2000/svg" xmlns:xlink="http://www.w3.org/1999/xlink" width="1069.5" height="1080.001" viewBox="0 0 1069.5 1080.001">
  <defs>
    <linearGradient id="linear-gradient" x1="1" x2="0.037" y2="1" gradientUnits="objectBoundingBox">
      <stop offset="0" stop-color="#7ba6c9"/>
      <stop offset="1" stop-color="#51b4e2" stop-opacity="0"/>
    </linearGradient>
  </defs>
  <g id="Group_17337" data-name="Group 17337" transform="translate(-891 -4314.001)">
    <path id="_9ad1ed87ecbbbc3f0500a660a5b95797" data-name="9ad1ed87ecbbbc3f0500a660a5b95797" d="M3628.925,6902.437s26.04,16.141,37.608,33.352,21.3,24.85,23.534,57.438-.946,878.322,0,911.073,5.354,42.872,26.484,58.133,44.422,19.548,71.041,19.865,870.335,0,870.335,0V6903Z" transform="translate(-2737.926 -2588.436)" fill="url(#linear-gradient)"/>
    <g id="Background_Simple" data-name="Background Simple" transform="translate(1014.877 4581)">
      <g id="Group_1" data-name="Group 1" transform="translate(0 0)">
        <path id="Path_1" data-name="Path 1" d="M799.533,214.034C752.479,124.152,663.163,61.88,566.847,38.285c-91.88-22.51-202.492-21.4-271.653,52.722-45.539,48.806-63.777,116.755-103.968,169.459-19.977,26.2-44.977,38.179-71.15,56.514C56.286,361.67,9.369,433.583,19.651,514.919c17.19,135.989,141.236,209.023,265.908,217.225,164.753,10.84,282.252-11.189,382.059-74.974,51.836-33.127,103.537-72.437,135.182-126.845,47.856-82.283,45.89-186.041,14.932-274.39A314.589,314.589,0,0,0,799.533,214.034Z" transform="translate(-18.234 -25.447)" fill="#e6f5fb"/>
        <path id="Path_2" data-name="Path 2" d="M799.533,214.034C752.479,124.152,663.163,61.88,566.847,38.285c-91.88-22.51-202.492-21.4-271.653,52.722-45.539,48.806-63.777,116.755-103.968,169.459-19.977,26.2-44.977,38.179-71.15,56.514C56.286,361.67,9.369,433.583,19.651,514.919c17.19,135.989,141.236,209.023,265.908,217.225,164.753,10.84,282.252-11.189,382.059-74.974,51.836-33.127,103.537-72.437,135.182-126.845,47.856-82.283,45.89-186.041,14.932-274.39A314.589,314.589,0,0,0,799.533,214.034Z" transform="translate(-18.234 -25.447)" fill="#e6f5fb" opacity="0.8"/>
      </g>
    </g>
    <g id="Group_16090" data-name="Group 16090" transform="translate(802.443 3194.232)">
      <g id="Signs" transform="translate(424.167 1234.852)">
        <g id="Group_3" data-name="Group 3" transform="translate(0)">
          <g id="Group_2" data-name="Group 2" transform="translate(186.926)">
            <path id="Path_3" data-name="Path 3" d="M257.8,984.166H236.551V59.195a10.627,10.627,0,0,1,10.627-10.627h0A10.627,10.627,0,0,1,257.8,59.195Z" transform="translate(-236.551 -48.568)" fill="#fff" stroke="#263238" stroke-linecap="round" stroke-linejoin="round" stroke-width="1"/>
          </g>
          <rect id="Rectangle_1" data-name="Rectangle 1" width="186.326" height="65.608" transform="translate(0 123.207)" fill="#263238" stroke="#263238" stroke-linecap="round" stroke-linejoin="round" stroke-width="1"/>
          <rect id="Rectangle_2" data-name="Rectangle 2" width="186.326" height="65.608" transform="translate(208.54 52.881)" fill="#263238" stroke="#263238" stroke-linecap="round" stroke-linejoin="round" stroke-width="1"/>
          <path id="Path_4" data-name="Path 4" d="M246.259,196.948,350.3,210.168V118.12L246.259,131.34Z" transform="translate(-37.719 36.73)" fill="#263238" stroke="#263238" stroke-linecap="round" stroke-linejoin="round" stroke-width="1"/>
          <path id="Path_5" data-name="Path 5" d="M322.641,153.531l-22.964-25.322v11.042l-47.958,1.886v24.055l47.958,2.381v11.042Z" transform="translate(-31.025 49.103)" fill="#fff" stroke="#263238" stroke-linecap="round" stroke-linejoin="round" stroke-width="1"/>
          <path id="Path_6" data-name="Path 6" d="M388.113,96.175,352.7,75.732v8.957H259.358v22.973H352.7v8.957Z" transform="translate(-21.655 -15.254)" fill="#fff" stroke="#263238" stroke-linecap="round" stroke-linejoin="round" stroke-width="1"/>
          <path id="Path_7" data-name="Path 7" d="M166.01,130.12l35.409-20.443v8.956h93.346v22.973H201.419v8.956Z" transform="translate(-136.135 26.375)" fill="#fff" stroke="#263238" stroke-linecap="round" stroke-linejoin="round" stroke-width="1"/>
        </g>
      </g>
      <g id="Graphics" transform="translate(249.157 1269.493)">
        <g id="Group_4" data-name="Group 4" transform="translate(584.83 0)">
          <ellipse id="Ellipse_1" data-name="Ellipse 1" cx="77.205" cy="77.205" rx="77.205" ry="77.205" fill="none" stroke="#263238" stroke-linecap="round" stroke-linejoin="round" stroke-width="1"/>
          <path id="Path_8" data-name="Path 8" d="M403.829,121.7a72.147,72.147,0,0,1-17.577,12.873" transform="translate(-275.855 6.479)" fill="none" stroke="#263238" stroke-linecap="round" stroke-linejoin="round" stroke-width="1"/>
          <path id="Path_9" data-name="Path 9" d="M433.874,206.66a71.945,71.945,0,1,1,38.946-31.445" transform="translate(-333.769 -61.231)" fill="none" stroke="#263238" stroke-linecap="round" stroke-linejoin="round" stroke-width="1"/>
          <ellipse id="Ellipse_2" data-name="Ellipse 2" cx="5.696" cy="5.696" rx="5.696" ry="5.696" transform="translate(71.509 71.509)" fill="#263238" stroke="#263238" stroke-linecap="round" stroke-linejoin="round" stroke-width="1"/>
          <path id="Path_10" data-name="Path 10" d="M379.538,148.837l-8.2-31.991,47.815-32.753" transform="translate(-294.138 -39.642)" fill="none" stroke="#263238" stroke-linecap="round" stroke-linejoin="round" stroke-width="1"/>
        </g>
        <g id="Group_9" data-name="Group 9" transform="translate(0 232.225)">
          <path id="Path_11" data-name="Path 11" d="M190.247,188.775V302.854H105.288" transform="translate(-35.594 -143.486)" fill="none" stroke="#263238" stroke-linecap="round" stroke-linejoin="round" stroke-width="1"/>
          <path id="Path_12" data-name="Path 12" d="M73.984,302.075V174.8H228.638v21.059" transform="translate(-73.984 -160.621)" fill="none" stroke="#263238" stroke-linecap="round" stroke-linejoin="round" stroke-width="1"/>
          <path id="Path_13" data-name="Path 13" d="M131.479,245.138H73.984v-9.3" transform="translate(-73.984 -85.77)" fill="none" stroke="#263238" stroke-linecap="round" stroke-linejoin="round" stroke-width="1"/>
          <g id="Group_5" data-name="Group 5" transform="translate(9.401 49.918)">
            <rect id="Rectangle_3" data-name="Rectangle 3" width="15.095" height="15.095" fill="none" stroke="#263238" stroke-linecap="round" stroke-linejoin="round" stroke-width="1"/>
            <rect id="Rectangle_4" data-name="Rectangle 4" width="15.095" height="15.095" transform="translate(20.126)" fill="none" stroke="#263238" stroke-linecap="round" stroke-linejoin="round" stroke-width="1"/>
            <rect id="Rectangle_5" data-name="Rectangle 5" width="15.095" height="15.095" transform="translate(40.253)" fill="none" stroke="#263238" stroke-linecap="round" stroke-linejoin="round" stroke-width="1"/>
            <rect id="Rectangle_6" data-name="Rectangle 6" width="15.095" height="15.095" transform="translate(60.379)" fill="none" stroke="#263238" stroke-linecap="round" stroke-linejoin="round" stroke-width="1"/>
            <rect id="Rectangle_7" data-name="Rectangle 7" width="15.095" height="15.095" transform="translate(80.505)" fill="none" stroke="#263238" stroke-linecap="round" stroke-linejoin="round" stroke-width="1"/>
            <rect id="Rectangle_8" data-name="Rectangle 8" width="15.095" height="15.095" transform="translate(100.631)" fill="none" stroke="#263238" stroke-linecap="round" stroke-linejoin="round" stroke-width="1"/>
            <rect id="Rectangle_9" data-name="Rectangle 9" width="15.095" height="15.095" transform="translate(120.758)" fill="none" stroke="#263238" stroke-linecap="round" stroke-linejoin="round" stroke-width="1"/>
          </g>
          <g id="Group_6" data-name="Group 6" transform="translate(9.401 73.739)">
            <rect id="Rectangle_10" data-name="Rectangle 10" width="15.095" height="15.095" fill="none" stroke="#263238" stroke-linecap="round" stroke-linejoin="round" stroke-width="1"/>
            <rect id="Rectangle_11" data-name="Rectangle 11" width="15.095" height="15.095" transform="translate(20.126)" fill="none" stroke="#263238" stroke-linecap="round" stroke-linejoin="round" stroke-width="1"/>
            <rect id="Rectangle_12" data-name="Rectangle 12" width="15.095" height="15.095" transform="translate(40.253)" fill="none" stroke="#263238" stroke-linecap="round" stroke-linejoin="round" stroke-width="1"/>
            <rect id="Rectangle_13" data-name="Rectangle 13" width="15.095" height="15.095" transform="translate(60.379)" fill="none" stroke="#263238" stroke-linecap="round" stroke-linejoin="round" stroke-width="1"/>
            <rect id="Rectangle_14" data-name="Rectangle 14" width="15.095" height="15.095" transform="translate(80.505)" fill="none" stroke="#263238" stroke-linecap="round" stroke-linejoin="round" stroke-width="1"/>
            <rect id="Rectangle_15" data-name="Rectangle 15" width="15.095" height="15.095" transform="translate(100.631)" fill="none" stroke="#263238" stroke-linecap="round" stroke-linejoin="round" stroke-width="1"/>
            <rect id="Rectangle_16" data-name="Rectangle 16" width="15.095" height="15.095" transform="translate(120.758)" fill="none" stroke="#263238" stroke-linecap="round" stroke-linejoin="round" stroke-width="1"/>
          </g>
          <g id="Group_7" data-name="Group 7" transform="translate(9.401 97.561)">
            <rect id="Rectangle_17" data-name="Rectangle 17" width="15.095" height="15.095" fill="none" stroke="#263238" stroke-linecap="round" stroke-linejoin="round" stroke-width="1"/>
            <rect id="Rectangle_18" data-name="Rectangle 18" width="15.095" height="15.095" transform="translate(20.126)" fill="none" stroke="#263238" stroke-linecap="round" stroke-linejoin="round" stroke-width="1"/>
            <rect id="Rectangle_19" data-name="Rectangle 19" width="15.095" height="15.095" transform="translate(40.253)" fill="none" stroke="#263238" stroke-linecap="round" stroke-linejoin="round" stroke-width="1"/>
            <rect id="Rectangle_20" data-name="Rectangle 20" width="15.095" height="15.095" transform="translate(60.379)" fill="none" stroke="#263238" stroke-linecap="round" stroke-linejoin="round" stroke-width="1"/>
            <rect id="Rectangle_21" data-name="Rectangle 21" width="15.095" height="15.095" transform="translate(80.505)" fill="none" stroke="#263238" stroke-linecap="round" stroke-linejoin="round" stroke-width="1"/>
            <rect id="Rectangle_22" data-name="Rectangle 22" width="15.095" height="15.095" transform="translate(100.631)" fill="none" stroke="#263238" stroke-linecap="round" stroke-linejoin="round" stroke-width="1"/>
            <rect id="Rectangle_23" data-name="Rectangle 23" width="15.095" height="15.095" transform="translate(120.758)" fill="none" stroke="#263238" stroke-linecap="round" stroke-linejoin="round" stroke-width="1"/>
          </g>
          <g id="Group_8" data-name="Group 8" transform="translate(9.401 121.383)">
            <rect id="Rectangle_24" data-name="Rectangle 24" width="15.095" height="15.095" fill="none" stroke="#263238" stroke-linecap="round" stroke-linejoin="round" stroke-width="1"/>
            <rect id="Rectangle_25" data-name="Rectangle 25" width="15.095" height="15.095" transform="translate(20.126)" fill="none" stroke="#263238" stroke-linecap="round" stroke-linejoin="round" stroke-width="1"/>
            <rect id="Rectangle_26" data-name="Rectangle 26" width="15.095" height="15.095" transform="translate(40.253)" fill="none" stroke="#263238" stroke-linecap="round" stroke-linejoin="round" stroke-width="1"/>
            <rect id="Rectangle_27" data-name="Rectangle 27" width="15.095" height="15.095" transform="translate(60.379)" fill="none" stroke="#263238" stroke-linecap="round" stroke-linejoin="round" stroke-width="1"/>
            <rect id="Rectangle_28" data-name="Rectangle 28" width="15.095" height="15.095" transform="translate(80.505)" fill="none" stroke="#263238" stroke-linecap="round" stroke-linejoin="round" stroke-width="1"/>
            <rect id="Rectangle_29" data-name="Rectangle 29" width="15.095" height="15.095" transform="translate(100.631)" fill="none" stroke="#263238" stroke-linecap="round" stroke-linejoin="round" stroke-width="1"/>
            <rect id="Rectangle_30" data-name="Rectangle 30" width="15.095" height="15.095" transform="translate(120.758)" fill="none" stroke="#263238" stroke-linecap="round" stroke-linejoin="round" stroke-width="1"/>
          </g>
          <path id="Path_14" data-name="Path 14" d="M89.941,192.863H83.28v-24.43h6.661Zm26.652-24.43H109.93v24.43h6.664Zm26.65,0H136.58v24.43h6.664Zm26.65,0h-6.664v24.43h6.664Zm26.65,0h-6.664v24.43h6.664Z" transform="translate(-62.584 -168.433)" fill="#263238" stroke="#263238" stroke-linecap="round" stroke-linejoin="round" stroke-width="1"/>
        </g>
        <g id="Group_10" data-name="Group 10" transform="translate(18.338 489.187)">
          <path id="Path_15" data-name="Path 15" d="M141.209,283.85A58.988,58.988,0,1,0,200.2,342.838,58.987,58.987,0,0,0,141.209,283.85Zm0,96.307a37.319,37.319,0,1,1,37.319-37.319A37.318,37.318,0,0,1,141.209,380.157Z" transform="translate(-82.221 -283.85)" fill="none" stroke="#263238" stroke-linecap="round" stroke-linejoin="round" stroke-width="1"/>
          <path id="Path_16" data-name="Path 16" d="M109.257,283.864v21.7a37.279,37.279,0,0,1,25.35,63.465l17.021,13.552a58.974,58.974,0,0,0-42.37-98.716Z" transform="translate(-49.065 -283.833)" fill="none" stroke="#263238" stroke-linecap="round" stroke-linejoin="round" stroke-width="1"/>
          <line id="Line_1" data-name="Line 1" x2="42.135" transform="translate(37.32 56.581)" fill="none" stroke="#263238" stroke-linecap="round" stroke-linejoin="round" stroke-width="1"/>
          <line id="Line_2" data-name="Line 2" x2="42.135" transform="translate(37.32 67.415)" fill="none" stroke="#263238" stroke-linecap="round" stroke-linejoin="round" stroke-width="1"/>
        </g>
        <g id="Group_11" data-name="Group 11" transform="translate(566.706 270.771)">
          <line id="Line_3" data-name="Line 3" x2="114.766" transform="translate(45.737 12.606)" fill="none" stroke="#263238" stroke-linecap="round" stroke-linejoin="round" stroke-width="1"/>
          <line id="Line_4" data-name="Line 4" x2="11.817" transform="translate(0 12.606)" fill="none" stroke="#263238" stroke-linecap="round" stroke-linejoin="round" stroke-width="1"/>
          <line id="Line_5" data-name="Line 5" x2="76.547" transform="translate(83.956 30.815)" fill="none" stroke="#263238" stroke-linecap="round" stroke-linejoin="round" stroke-width="1"/>
          <line id="Line_6" data-name="Line 6" x2="12.75" transform="translate(0 30.815)" fill="none" stroke="#263238" stroke-linecap="round" stroke-linejoin="round" stroke-width="1"/>
          <line id="Line_7" data-name="Line 7" x2="39.727" transform="translate(120.777 49.024)" fill="none" stroke="#263238" stroke-linecap="round" stroke-linejoin="round" stroke-width="1"/>
          <line id="Line_8" data-name="Line 8" x2="11.817" transform="translate(0 49.024)" fill="none" stroke="#263238" stroke-linecap="round" stroke-linejoin="round" stroke-width="1"/>
          <line id="Line_9" data-name="Line 9" x2="7.101" transform="translate(153.402 67.233)" fill="none" stroke="#263238" stroke-linecap="round" stroke-linejoin="round" stroke-width="1"/>
          <line id="Line_10" data-name="Line 10" x2="11.817" transform="translate(0 67.233)" fill="none" stroke="#263238" stroke-linecap="round" stroke-linejoin="round" stroke-width="1"/>
          <line id="Line_11" data-name="Line 11" x2="7.101" transform="translate(153.402 88.423)" fill="none" stroke="#263238" stroke-linecap="round" stroke-linejoin="round" stroke-width="1"/>
          <line id="Line_12" data-name="Line 12" x2="11.817" transform="translate(0 88.423)" fill="none" stroke="#263238" stroke-linecap="round" stroke-linejoin="round" stroke-width="1"/>
          <line id="Line_13" data-name="Line 13" x2="7.101" transform="translate(153.402 109.613)" fill="none" stroke="#263238" stroke-linecap="round" stroke-linejoin="round" stroke-width="1"/>
          <line id="Line_14" data-name="Line 14" x2="11.817" transform="translate(0 109.613)" fill="none" stroke="#263238" stroke-linecap="round" stroke-linejoin="round" stroke-width="1"/>
          <rect id="Rectangle_31" data-name="Rectangle 31" width="26.613" height="111.552" transform="translate(14.833)" fill="none" stroke="#263238" stroke-linecap="round" stroke-linejoin="round" stroke-width="1"/>
          <rect id="Rectangle_32" data-name="Rectangle 32" width="26.613" height="90.542" transform="translate(51.25 21.01)" fill="none" stroke="#263238" stroke-linecap="round" stroke-linejoin="round" stroke-width="1"/>
          <rect id="Rectangle_33" data-name="Rectangle 33" width="26.613" height="70.932" transform="translate(87.668 40.62)" fill="none" stroke="#263238" stroke-linecap="round" stroke-linejoin="round" stroke-width="1"/>
          <rect id="Rectangle_34" data-name="Rectangle 34" width="26.613" height="45.72" transform="translate(124.086 65.832)" fill="none" stroke="#263238" stroke-linecap="round" stroke-linejoin="round" stroke-width="1"/>
        </g>
        <g id="Group_12" data-name="Group 12" transform="translate(11.959 7.634)">
          <path id="Path_17" data-name="Path 17" d="M183.78,80.5a65.392,65.392,0,1,0,8.785,7.877" transform="translate(-79.356 -67.556)" fill="none" stroke="#263238" stroke-linecap="round" stroke-linejoin="round" stroke-width="1"/>
          <path id="Path_18" data-name="Path 18" d="M101.584,150.526a42.884,42.884,0,1,0-5.074-6.305" transform="translate(-67.01 -55.21)" fill="none" stroke="#263238" stroke-linecap="round" stroke-linejoin="round" stroke-width="1"/>
          <ellipse id="Ellipse_3" data-name="Ellipse 3" cx="22.411" cy="22.411" rx="22.411" ry="22.411" transform="translate(42.956 42.956)" fill="none" stroke="#263238" stroke-linecap="round" stroke-linejoin="round" stroke-width="1"/>
        </g>
        <g id="Group_14" data-name="Group 14" transform="translate(581.639 484.902)">
          <g id="Group_13" data-name="Group 13" transform="translate(49.932 29.229)">
            <path id="Path_19" data-name="Path 19" d="M373.75,299.794c7.2,1.017,10.5,6.606,10.5,14.565v1.61h-6.181v-2.033c0-5.252-2.115-8.469-6.859-8.469-4.655,0-6.773,3.217-6.773,8.469,0,13.294,19.9,13.378,19.9,30.058,0,7.962-3.386,13.634-10.582,14.65v4.488h-5.421v-4.488c-7.367-1.015-10.669-6.606-10.669-14.65v-3.64h6.183v4.065c0,5.334,2.2,8.382,6.942,8.382,4.827,0,6.944-3.048,6.944-8.382,0-13.209-19.815-13.38-19.815-30.061,0-8.129,3.3-13.463,10.415-14.565v-4.74h5.421Z" transform="translate(-357.66 -295.054)" fill="#263238"/>
          </g>
          <path id="Path_20" data-name="Path 20" d="M373.381,336.662a54.545,54.545,0,0,0,11.686-6.9" transform="translate(-288.448 -223.256)" fill="none" stroke="#263238" stroke-linecap="round" stroke-linejoin="round" stroke-width="1"/>
          <path id="Path_21" data-name="Path 21" d="M374.414,287.395A54.623,54.623,0,0,0,404.791,391.97" transform="translate(-330.461 -275.218)" fill="none" stroke="#263238" stroke-linecap="round" stroke-linejoin="round" stroke-width="1"/>
          <path id="Path_22" data-name="Path 22" d="M411.257,377.35a54.628,54.628,0,0,0-53.627-89.877" transform="translate(-307.765 -277.153)" fill="none" stroke="#263238" stroke-linecap="round" stroke-linejoin="round" stroke-width="1"/>
          <circle id="Ellipse_4" data-name="Ellipse 4" cx="44.77" cy="44.77" r="44.77" transform="matrix(0.734, -0.68, 0.68, 0.734, 0, 60.848)" fill="none" stroke="#263238" stroke-linecap="round" stroke-linejoin="round" stroke-width="1"/>
        </g>
      </g>
      <g id="Character" transform="translate(480.135 1515.525)">
        <g id="Group_16" data-name="Group 16" transform="translate(0 0)">
          <path id="Path_23" data-name="Path 23" d="M271.164,237.6s.546-.06,1.532-.183c6.45-.8,31.755-4.188,46.244-9.916,16.7-6.6,54.769-3.106,54.769-3.106l16.7,12.04-19.033,12.43s-26.8-8.934-45.445-8.158-27.58,6.216-39.231,5.439-26.026-8.547-26.026-8.547Z" transform="translate(-76.009 -114.745)" fill="#263238" stroke="#263238" stroke-linecap="round" stroke-linejoin="round" stroke-width="1"/>
          <path id="Path_24" data-name="Path 24" d="M233.329,215.014v25h41.188V211.067Z" transform="translate(-109.545 -129.955)" fill="#fff" stroke="#263238" stroke-linecap="round" stroke-linejoin="round" stroke-width="1"/>
          <path id="Path_25" data-name="Path 25" d="M232.225,202.962s-9.758-6.505-6.506,4.88,6.506,15.721,11.383,15.18,7.592-2.169,5.965-6.506S232.225,202.962,232.225,202.962Z" transform="translate(-119.691 -142.164)" fill="#fff" stroke="#263238" stroke-linecap="round" stroke-linejoin="round" stroke-width="1"/>
          <path id="Path_26" data-name="Path 26" d="M263.785,202.962s9.76-6.505,6.508,4.88-6.508,15.721-11.386,15.18-7.59-2.169-5.964-6.506S263.785,202.962,263.785,202.962Z" transform="translate(-86.071 -142.164)" fill="#fff" stroke="#263238" stroke-linecap="round" stroke-linejoin="round" stroke-width="1"/>
          <path id="Path_27" data-name="Path 27" d="M251.069,183.389s-16.266,5.421-21.687,20.6-.541,33.612,2.169,41.2,15.723,22.228,15.723,22.228h29.275s10.843-10.3,16.807-23.854,5.965-32.53,5.965-32.53,4.878,1.627,4.878-4.878-15.18-18.975-15.18-18.975,7.049-2.71,2.169-6.505-22.228-2.168-22.228-2.168S266.789,167.123,251.069,183.389Z" transform="translate(-117.391 -174.635)" fill="#263238" stroke="#263238" stroke-linecap="round" stroke-linejoin="round" stroke-width="1"/>
          <path id="Path_28" data-name="Path 28" d="M286.3,458.317l4.453,2.783s5.009,0,7.792,2.783,1.75,16.613,1.75,16.613-2.222,1.639-12.8,1.639-33.865,2.585-36.092-1.311.385-20.28.385-20.28Z" transform="translate(-88.484 173.268)" fill="#858585" stroke="#263238" stroke-linecap="round" stroke-linejoin="round" stroke-width="1"/>
          <g id="Group_15" data-name="Group 15" transform="translate(65.184 271.719)">
            <path id="Path_29" data-name="Path 29" d="M217.741,306.447s-3.34,24.49-3.34,29.5-1.113,48.424-1.113,48.424.557,114.1.557,116.329-9.462,33.4-6.122,54.546,10.019,102.414,10.019,102.414-2.226,17.811-.557,19.481,22.264,3.9,26.717,1.67,1.67-23.934,1.67-23.934,2.783-9.462,2.783-16.141V620.924c0-5.566,2.783-55.1,5.566-74.584s4.453-45.641,4.453-45.641l11.689-120.225,8.906-.557S290.1,509.048,290.655,518.51s-1.67,28.386,3.34,50.094,7.792,80.706,7.792,80.706-1.113,5.566,0,7.792,3.9,8.905,3.9,8.905a64.367,64.367,0,0,0,11.691,0c6.1-.47,9.78-1.1,17.9-4.874,3.967-3.662,5.713-8.672,3.607-13.819-3.331-8.144-4.813-9.694-4.813-9.694s5.009-70.131,5.009-87.386-2.783-38.405-2.783-40.075,3.34-126.9,3.34-139.706-1.113-47.311-6.679-62.339-94.621-11.132-103.527-10.575S217.741,306.447,217.741,306.447Z" transform="translate(-207.008 -296.68)" fill="#263238" stroke="#263238" stroke-linecap="round" stroke-linejoin="round" stroke-width="1"/>
            <line id="Line_15" data-name="Line 15" y1="2.226" x2="47.867" transform="translate(43.573 80.727)" fill="none" stroke="#757575" stroke-linecap="round" stroke-linejoin="round" stroke-width="1"/>
          </g>
          <path id="Path_30" data-name="Path 30" d="M309.626,223.567,279.57,230.8s-43.414,21.151-52.877,26.717-46.754,80.706-45.084,84.6,8.906,8.906,16.141,10.019,43.971-40.632,43.971-40.632,10.575,52.32,10.575,54.546-6.123,28.943-3.34,33.4,109.649,0,109.649,0,7.792.557,8.906-6.679-2.226-28.387-2.226-28.387l12.245-64.008s23.39,35.48,28.636,41.188c9.115,9.925,20.427,5.766,26.467-1.67,5.265-6.479.556-18.924-1.113-22.82s-31.169-70.131-40.075-72.914-46.2-16.141-46.2-16.141Z" transform="translate(-173.041 -114.625)" fill="#009de0" stroke="#263238" stroke-linecap="round" stroke-linejoin="round" stroke-width="1"/>
          <path id="Path_31" data-name="Path 31" d="M225.579,235.82s36.787-.759,42.909-.759,28.473-.192,28.473-.192l-5.653-12.054s-11.689-3.34-29.5-3.34a89.148,89.148,0,0,0-31.169,5.566Z" transform="translate(-119.05 -119.642)" fill="#009de0" stroke="#263238" stroke-linecap="round" stroke-linejoin="round" stroke-width="1"/>
          <path id="Path_32" data-name="Path 32" d="M207.99,249.885l11.32,29.348-19.481-19.481" transform="translate(-150.629 -82.349)" fill="none" stroke="#263238" stroke-linecap="round" stroke-linejoin="round" stroke-width="1"/>
          <line id="Line_16" data-name="Line 16" x2="1.351" y2="3.503" transform="translate(53.654 157.923)" fill="none" stroke="#263238" stroke-linecap="round" stroke-linejoin="round" stroke-width="1"/>
          <path id="Path_33" data-name="Path 33" d="M233.2,285.388a55.749,55.749,0,0,1-5.867,4.295" transform="translate(-116.904 -38.809)" fill="none" stroke="#263238" stroke-linecap="round" stroke-linejoin="round" stroke-width="1"/>
          <path id="Path_34" data-name="Path 34" d="M279.052,247.567s-20.351,55.633-47.6,81.276" transform="translate(-111.853 -85.192)" fill="none" stroke="#263238" stroke-linecap="round" stroke-linejoin="round" stroke-width="1"/>
          <path id="Path_35" data-name="Path 35" d="M282.381,243.817l-12.8,31.726,20.594-22.264" transform="translate(-65.088 -89.79)" fill="none" stroke="#263238" stroke-linecap="round" stroke-linejoin="round" stroke-width="1"/>
          <path id="Path_36" data-name="Path 36" d="M179.329,285.52a49.468,49.468,0,0,0,16.141,22.264c12.245,9.462,45.084,40.631,45.084,40.631a12.566,12.566,0,0,0,0,5.009c.557,2.783,9.462,10.019,9.462,10.019v-5.566l2.226-4.453,2.226-5.566a65.771,65.771,0,0,0,7.236-3.34,11.372,11.372,0,0,0,2.783-2.783,72.285,72.285,0,0,0,10.019,1.113c3.9,0,9.462-3.9,6.123-5.009s-6.679,0-11.132-2.226-6.679-4.453-11.132-4.453H246.677l-30.613-50.094Z" transform="translate(-175.77 -44.108)" fill="#fff" stroke="#263238" stroke-linecap="round" stroke-linejoin="round" stroke-width="1"/>
          <path id="Path_37" data-name="Path 37" d="M194.463,267.7s-6.494,1.928-8.164,3.6-10.019,14.471-8.349,21.151,3.9,16.141,18.368,18.924,22.264-3.339,23.377-5.009S223.553,285,221.327,285s-8.311,7.447-8.311,7.447-16.58-3.754-19.919-6.537S194.463,267.7,194.463,267.7Z" transform="translate(-177.73 -60.5)" fill="#009de0" stroke="#263238" stroke-linecap="round" stroke-linejoin="round" stroke-width="1"/>
          <path id="Path_38" data-name="Path 38" d="M356.306,285.52a49.468,49.468,0,0,1-16.141,22.264c-12.245,9.462-45.084,40.631-45.084,40.631a12.566,12.566,0,0,1,0,5.009c-.557,2.783-12.819,11.346-12.819,11.346v-8.113l-.853-5.125-.243-3.674a65.768,65.768,0,0,1-7.236-3.34,11.372,11.372,0,0,1-2.783-2.783,72.285,72.285,0,0,1-10.019,1.113c-3.9,0-9.462-3.9-6.122-5.009s6.679,0,11.132-2.226,6.679-4.453,11.132-4.453h11.688l30.613-50.094Z" transform="translate(-84.218 -44.108)" fill="#fff" stroke="#263238" stroke-linecap="round" stroke-linejoin="round" stroke-width="1"/>
          <path id="Path_39" data-name="Path 39" d="M310.966,269.035s4.174-.8,5.844.866,10.019,14.471,8.349,21.151-3.9,16.141-18.368,18.924-22.264-3.34-23.377-5.009-2.013-20.61-.557-18.924a23.214,23.214,0,0,0,7.236,5.009s17.257-.879,19.962-10.635C311.218,276.228,310.966,269.035,310.966,269.035Z" transform="translate(-49.732 -59.102)" fill="#009de0" stroke="#263238" stroke-linecap="round" stroke-linejoin="round" stroke-width="1"/>
          <path id="Path_40" data-name="Path 40" d="M238.475,480.117c3.515-1.757,2.523-15.645,1.948-21.422a41.265,41.265,0,0,1-12.523,3.611,23.429,23.429,0,0,1-15.585-3.34s-1.786,19.251-.274,21.066C213.682,482,234.022,482.344,238.475,480.117Z" transform="translate(-136.398 173.732)" fill="#858585" stroke="#263238" stroke-linecap="round" stroke-linejoin="round" stroke-width="1"/>
        </g>
      </g>
      <g id="Plants" transform="translate(177.948 2004.78)">
        <g id="Group_29" data-name="Group 29" transform="translate(763.841 12.494)">
          <g id="Group_28" data-name="Group 28">
            <g id="Group_27" data-name="Group 27">
              <g id="Group_17" data-name="Group 17" transform="translate(34.52 37.742)">
                <path id="Path_41" data-name="Path 41" d="M401.475,533.563a.885.885,0,0,1-.884-.884V417.836a.884.884,0,0,1,1.768,0V532.679A.885.885,0,0,1,401.475,533.563Z" transform="translate(-400.591 -416.952)" fill="#263238"/>
              </g>
              <g id="Group_18" data-name="Group 18" transform="translate(0 125.837)">
                <path id="Path_42" data-name="Path 42" d="M419.626,473.791s-6.045-8.636-13.815-12.953-20.725-4.317-20.725-4.317S391.995,481.561,419.626,473.791Z" transform="translate(-385.086 -456.521)" fill="#263238"/>
              </g>
              <g id="Group_19" data-name="Group 19" transform="translate(35.404 125.837)">
                <path id="Path_43" data-name="Path 43" d="M400.988,473.791s6.045-8.636,13.817-12.953,20.723-4.317,20.723-4.317S428.62,481.561,400.988,473.791Z" transform="translate(-400.988 -456.521)" fill="#263238"/>
              </g>
              <g id="Group_20" data-name="Group 20" transform="translate(0 94.75)">
                <path id="Path_44" data-name="Path 44" d="M419.626,459.828s-6.045-8.634-13.815-12.953-20.725-4.317-20.725-4.317S391.995,467.6,419.626,459.828Z" transform="translate(-385.086 -442.558)" fill="#263238"/>
              </g>
              <g id="Group_21" data-name="Group 21" transform="translate(35.404 94.75)">
                <path id="Path_45" data-name="Path 45" d="M400.988,459.828s6.045-8.634,13.817-12.953,20.723-4.317,20.723-4.317S428.62,467.6,400.988,459.828Z" transform="translate(-400.988 -442.558)" fill="#263238"/>
              </g>
              <g id="Group_22" data-name="Group 22" transform="translate(0 63.666)">
                <path id="Path_46" data-name="Path 46" d="M419.626,445.866s-6.045-8.636-13.815-12.953-20.725-4.317-20.725-4.317S391.995,453.638,419.626,445.866Z" transform="translate(-385.086 -428.596)" fill="#263238"/>
              </g>
              <g id="Group_23" data-name="Group 23" transform="translate(35.404 63.666)">
                <path id="Path_47" data-name="Path 47" d="M400.988,445.866s6.045-8.636,13.817-12.953,20.723-4.317,20.723-4.317S428.62,453.638,400.988,445.866Z" transform="translate(-400.988 -428.596)" fill="#263238"/>
              </g>
              <g id="Group_24" data-name="Group 24" transform="translate(0 32.581)">
                <path id="Path_48" data-name="Path 48" d="M419.626,431.9s-6.045-8.634-13.815-12.951-20.725-4.317-20.725-4.317S391.995,439.674,419.626,431.9Z" transform="translate(-385.086 -414.634)" fill="#263238"/>
              </g>
              <g id="Group_25" data-name="Group 25" transform="translate(35.404 32.581)">
                <path id="Path_49" data-name="Path 49" d="M400.988,431.9s6.045-8.634,13.817-12.951,20.723-4.317,20.723-4.317S428.62,439.674,400.988,431.9Z" transform="translate(-400.988 -414.634)" fill="#263238"/>
              </g>
              <g id="Group_26" data-name="Group 26" transform="translate(28.129)">
                <path id="Path_50" data-name="Path 50" d="M405,438.626s-6.911-9.3-7.26-18.183S403.23,400,403.23,400,424.394,417.468,405,438.626Z" transform="translate(-397.72 -400)" fill="#263238"/>
              </g>
            </g>
          </g>
        </g>
        <g id="Group_42" data-name="Group 42" transform="translate(0 0)">
          <g id="Group_41" data-name="Group 41">
            <g id="Group_40" data-name="Group 40">
              <g id="Group_30" data-name="Group 30" transform="translate(37.314 40.794)">
                <path id="Path_51" data-name="Path 51" d="M59.715,538.764a.955.955,0,0,1-.955-.955V413.668a.955.955,0,1,1,1.91,0V537.809A.955.955,0,0,1,59.715,538.764Z" transform="translate(-58.76 -412.711)" fill="#263238"/>
              </g>
              <g id="Group_31" data-name="Group 31" transform="translate(0 136.023)">
                <path id="Path_52" data-name="Path 52" d="M79.336,474.152s-6.534-9.335-14.935-14S42,455.484,42,455.484,49.467,482.552,79.336,474.152Z" transform="translate(-42 -455.484)" fill="#263238"/>
              </g>
              <g id="Group_32" data-name="Group 32" transform="translate(38.269 136.023)">
                <path id="Path_53" data-name="Path 53" d="M59.189,474.152s6.534-9.335,14.935-14,22.4-4.666,22.4-4.666S89.058,482.552,59.189,474.152Z" transform="translate(-59.189 -455.484)" fill="#263238"/>
              </g>
              <g id="Group_33" data-name="Group 33" transform="translate(0 102.42)">
                <path id="Path_54" data-name="Path 54" d="M79.336,459.059s-6.534-9.333-14.935-14S42,440.391,42,440.391,49.467,467.459,79.336,459.059Z" transform="translate(-42 -440.391)" fill="#263238"/>
              </g>
              <g id="Group_34" data-name="Group 34" transform="translate(38.269 102.42)">
                <path id="Path_55" data-name="Path 55" d="M59.189,459.059s6.534-9.333,14.935-14,22.4-4.667,22.4-4.667S89.058,467.459,59.189,459.059Z" transform="translate(-59.189 -440.391)" fill="#263238"/>
              </g>
              <g id="Group_35" data-name="Group 35" transform="translate(0 68.818)">
                <path id="Path_56" data-name="Path 56" d="M79.336,443.966s-6.534-9.333-14.935-14S42,425.3,42,425.3,49.467,452.369,79.336,443.966Z" transform="translate(-42 -425.298)" fill="#263238"/>
              </g>
              <g id="Group_36" data-name="Group 36" transform="translate(38.269 68.818)">
                <path id="Path_57" data-name="Path 57" d="M59.189,443.966s6.534-9.333,14.935-14,22.4-4.669,22.4-4.669S89.058,452.369,59.189,443.966Z" transform="translate(-59.189 -425.298)" fill="#263238"/>
              </g>
              <g id="Group_37" data-name="Group 37" transform="translate(0 35.217)">
                <path id="Path_58" data-name="Path 58" d="M79.336,428.874s-6.534-9.335-14.935-14S42,410.206,42,410.206,49.467,437.274,79.336,428.874Z" transform="translate(-42 -410.206)" fill="#263238"/>
              </g>
              <g id="Group_38" data-name="Group 38" transform="translate(38.269 35.217)">
                <path id="Path_59" data-name="Path 59" d="M59.189,428.874s6.534-9.335,14.935-14,22.4-4.667,22.4-4.667S89.058,437.274,59.189,428.874Z" transform="translate(-59.189 -410.206)" fill="#263238"/>
              </g>
              <g id="Group_39" data-name="Group 39" transform="translate(30.405)">
                <path id="Path_60" data-name="Path 60" d="M63.521,436.137s-7.472-10.05-7.848-19.652,5.94-22.1,5.94-22.1S84.489,413.27,63.521,436.137Z" transform="translate(-55.657 -394.388)" fill="#263238"/>
              </g>
            </g>
          </g>
        </g>
        <g id="Group_51" data-name="Group 51" transform="translate(79.261 68.081)">
          <g id="Group_50" data-name="Group 50">
            <g id="Group_49" data-name="Group 49">
              <g id="Group_43" data-name="Group 43" transform="translate(37.314 40.794)">
                <path id="Path_61" data-name="Path 61" d="M96.271,500.715v-56.47a.955.955,0,0,0-1.91,0v56.47Z" transform="translate(-94.361 -443.29)" fill="#263238"/>
              </g>
              <g id="Group_44" data-name="Group 44" transform="translate(0 68.818)">
                <path id="Path_62" data-name="Path 62" d="M114.937,474.545s-6.534-9.333-14.935-14-22.4-4.669-22.4-4.669S85.068,482.945,114.937,474.545Z" transform="translate(-77.601 -455.877)" fill="#263238"/>
              </g>
              <g id="Group_45" data-name="Group 45" transform="translate(38.269 68.818)">
                <path id="Path_63" data-name="Path 63" d="M94.79,474.545s6.534-9.333,14.935-14,22.4-4.669,22.4-4.669S124.659,482.945,94.79,474.545Z" transform="translate(-94.79 -455.877)" fill="#263238"/>
              </g>
              <g id="Group_46" data-name="Group 46" transform="translate(0 35.217)">
                <path id="Path_64" data-name="Path 64" d="M114.937,459.453s-6.534-9.335-14.935-14-22.4-4.667-22.4-4.667S85.068,467.853,114.937,459.453Z" transform="translate(-77.601 -440.785)" fill="#263238"/>
              </g>
              <g id="Group_47" data-name="Group 47" transform="translate(38.269 35.217)">
                <path id="Path_65" data-name="Path 65" d="M94.79,459.453s6.534-9.335,14.935-14,22.4-4.667,22.4-4.667S124.659,467.853,94.79,459.453Z" transform="translate(-94.79 -440.785)" fill="#263238"/>
              </g>
              <g id="Group_48" data-name="Group 48" transform="translate(30.405)">
                <path id="Path_66" data-name="Path 66" d="M99.122,466.716s-7.472-10.05-7.848-19.652,5.938-22.1,5.938-22.1S120.09,443.847,99.122,466.716Z" transform="translate(-91.258 -424.967)" fill="#263238"/>
              </g>
            </g>
          </g>
        </g>
        <g id="Group_60" data-name="Group 60" transform="translate(687.124 75.477)">
          <g id="Group_59" data-name="Group 59">
            <g id="Group_58" data-name="Group 58">
              <g id="Group_52" data-name="Group 52" transform="translate(34.52 37.739)">
                <path id="Path_67" data-name="Path 67" d="M367.9,498.366V446.124a.884.884,0,0,0-1.768,0v52.242Z" transform="translate(-366.133 -445.24)" fill="#263238"/>
              </g>
              <g id="Group_53" data-name="Group 53" transform="translate(0 63.666)">
                <path id="Path_68" data-name="Path 68" d="M385.168,474.155s-6.045-8.636-13.817-12.953-20.723-4.317-20.723-4.317S357.536,481.925,385.168,474.155Z" transform="translate(-350.628 -456.885)" fill="#263238"/>
              </g>
              <g id="Group_54" data-name="Group 54" transform="translate(35.404 63.666)">
                <path id="Path_69" data-name="Path 69" d="M366.53,474.155s6.045-8.636,13.815-12.953,20.725-4.317,20.725-4.317S394.162,481.925,366.53,474.155Z" transform="translate(-366.53 -456.885)" fill="#263238"/>
              </g>
              <g id="Group_55" data-name="Group 55" transform="translate(0 32.579)">
                <path id="Path_70" data-name="Path 70" d="M385.168,460.192s-6.045-8.634-13.817-12.951-20.723-4.319-20.723-4.319S357.536,467.964,385.168,460.192Z" transform="translate(-350.628 -442.922)" fill="#263238"/>
              </g>
              <g id="Group_56" data-name="Group 56" transform="translate(35.404 32.579)">
                <path id="Path_71" data-name="Path 71" d="M366.53,460.192s6.045-8.634,13.815-12.951,20.725-4.319,20.725-4.319S394.162,467.964,366.53,460.192Z" transform="translate(-366.53 -442.922)" fill="#263238"/>
              </g>
              <g id="Group_57" data-name="Group 57" transform="translate(28.129)">
                <path id="Path_72" data-name="Path 72" d="M370.537,466.912s-6.911-9.3-7.26-18.181,5.495-20.443,5.495-20.443S389.936,445.757,370.537,466.912Z" transform="translate(-363.262 -428.289)" fill="#263238"/>
              </g>
            </g>
          </g>
        </g>
        <g id="Group_69" data-name="Group 69" transform="translate(837.499 75.477)">
          <g id="Group_68" data-name="Group 68">
            <g id="Group_67" data-name="Group 67">
              <g id="Group_61" data-name="Group 61" transform="translate(34.518 37.739)">
                <path id="Path_73" data-name="Path 73" d="M435.442,498.366V446.124a.884.884,0,0,0-1.768,0v52.242Z" transform="translate(-433.674 -445.24)" fill="#263238"/>
              </g>
              <g id="Group_62" data-name="Group 62" transform="translate(0 63.666)">
                <path id="Path_74" data-name="Path 74" d="M452.71,474.155s-6.045-8.636-13.817-12.953-20.723-4.317-20.723-4.317S425.076,481.925,452.71,474.155Z" transform="translate(-418.17 -456.885)" fill="#263238"/>
              </g>
              <g id="Group_63" data-name="Group 63" transform="translate(35.402 63.666)">
                <path id="Path_75" data-name="Path 75" d="M434.071,474.155s6.045-8.636,13.817-12.953,20.723-4.317,20.723-4.317S461.7,481.925,434.071,474.155Z" transform="translate(-434.071 -456.885)" fill="#263238"/>
              </g>
              <g id="Group_64" data-name="Group 64" transform="translate(0 32.579)">
                <path id="Path_76" data-name="Path 76" d="M452.71,460.192s-6.045-8.634-13.817-12.951-20.723-4.319-20.723-4.319S425.076,467.964,452.71,460.192Z" transform="translate(-418.17 -442.922)" fill="#263238"/>
              </g>
              <g id="Group_65" data-name="Group 65" transform="translate(35.402 32.579)">
                <path id="Path_77" data-name="Path 77" d="M434.071,460.192s6.045-8.634,13.817-12.951,20.723-4.319,20.723-4.319S461.7,467.964,434.071,460.192Z" transform="translate(-434.071 -442.922)" fill="#263238"/>
              </g>
              <g id="Group_66" data-name="Group 66" transform="translate(28.129)">
                <path id="Path_78" data-name="Path 78" d="M438.077,466.912s-6.911-9.3-7.258-18.181,5.493-20.443,5.493-20.443S457.476,445.757,438.077,466.912Z" transform="translate(-430.804 -428.289)" fill="#263238"/>
              </g>
            </g>
          </g>
        </g>
      </g>
      <g id="Floor" transform="translate(173.495 2170.895)">
        <g id="Group_70" data-name="Group 70" transform="translate(0)">
          <line id="Line_17" data-name="Line 17" x2="15.05" transform="translate(969.012)" fill="none" stroke="#263238" stroke-linecap="round" stroke-linejoin="round" stroke-width="1"/>
          <line id="Line_18" data-name="Line 18" x2="775.06" transform="translate(173.408)" fill="none" stroke="#263238" stroke-linecap="round" stroke-linejoin="round" stroke-width="1"/>
          <line id="Line_19" data-name="Line 19" x2="152.864" fill="none" stroke="#263238" stroke-linecap="round" stroke-linejoin="round" stroke-width="1"/>
        </g>
      </g>
    </g>
  </g>
</svg>
