<svg xmlns="http://www.w3.org/2000/svg" xmlns:xlink="http://www.w3.org/1999/xlink" width="1029.002" height="1086.001" viewBox="0 0 1029.002 1086.001">
  <defs>
    <linearGradient id="linear-gradient" x2="0.963" y2="1" gradientUnits="objectBoundingBox">
      <stop offset="0" stop-color="#7ba6c9"/>
      <stop offset="1" stop-color="#51b4e2" stop-opacity="0"/>
    </linearGradient>
  </defs>
  <g id="Group_17338" data-name="Group 17338" transform="translate(0 -5394.002)">
    <path id="_9ad1ed87ecbbbc3f0500a660a5b95797" data-name="9ad1ed87ecbbbc3f0500a660a5b95797" d="M4657.927,6902.437s-26.04,16.141-37.608,33.352-21.3,24.85-23.534,57.438.946,878.322,0,911.073-5.354,42.872-26.484,58.133-44.422,19.548-71.041,19.865-870.335,0-870.335,0V6903Z" transform="translate(-3628.926 -1508.435)" fill="url(#linear-gradient)"/>
    <g id="Group_16100" data-name="Group 16100" transform="translate(19.047 6)">
      <g id="Background_Complete" data-name="Background Complete" transform="translate(27.233 5550.59)">
        <g id="Group_30" data-name="Group 30" transform="translate(0 496.017)">
          <g id="Group_4" data-name="Group 4">
            <g id="Group_3" data-name="Group 3">
              <g id="Group_2" data-name="Group 2">
                <g id="Group_1" data-name="Group 1">
                  <path id="Path_1" data-name="Path 1" d="M330.957,645.308c52.688-45.525,57.974-120.486,48.9-186.442-1.515-11.009-1.5-22.782-7.758-31.935s-19.2-14.509-28.614-8.833c-7.808,4.709-10.4,14.622-14.175,22.988a64.954,64.954,0,0,1-23.358,27.42c-6.658,4.378-15.133,7.508-22.473,4.394-10.072-4.276-12.553-17.324-13.62-28.321q-2.974-30.742-5.955-61.478c-1.064-10.995-2.189-22.219-6.683-32.3s-13.043-18.984-23.8-20.835-23.061,5.512-24.158,16.5c-.458,4.571.932,9.121,1.1,13.715s-1.438,9.858-5.639,11.576c-4.253,1.742-8.972-.921-12.587-3.8-12.488-9.924-21.656-23.423-30.317-36.9s-17.14-27.3-28.679-38.343-26.765-19.159-42.592-18.429-31.594,12.177-33.978,28.035c-2.391,15.9,8.271,30.687,19.4,42.213a246.575,246.575,0,0,0,56.093,43.413c3.716,2.1,7.744,4.369,9.489,8.3,3.144,7.08-3.049,15.071-10.033,18.227-7.908,3.573-16.884,3.639-25.347,5.53s-17.356,6.63-19.762,15.062c-3.341,11.7,7.266,22.5,17.3,29.256A211.248,211.248,0,0,0,169.6,493.812c8.389,2.123,17.163,3.84,24.267,8.847s12.059,14.477,8.919,22.623-13,11.675-21.625,10.977-16.68-4.512-25.064-6.724c-15.688-4.142-35.081-1.089-43.408,12.959-5.471,9.235-4.8,21.239-.529,31.132s11.7,18.032,19.461,25.44c27.132,25.9,60.473,45.561,96.759,54.095s69.077,8.47,102.577-7.853" transform="translate(-56.233 -274.247)" fill="#e6f5fa"/>
                </g>
              </g>
            </g>
          </g>
          <g id="Group_9" data-name="Group 9" transform="translate(14.658 11.369)">
            <g id="Group_8" data-name="Group 8">
              <g id="Group_7" data-name="Group 7">
                <g id="Group_6" data-name="Group 6">
                  <g id="Group_5" data-name="Group 5">
                    <path id="Path_2" data-name="Path 2" d="M328.693,687.932c-5.1-25.973-14.048-56.345-27.3-88.71-13.188-32.4-30.589-66.711-50.023-101.976l-14.484-26.055c-4.773-8.54-9.507-17.013-14.649-25.011a494.442,494.442,0,0,0-32.18-44.27c-10.916-13.586-21.772-26.08-32-37.69-10.265-11.592-20.035-22.214-29.351-31.517a391.967,391.967,0,0,0-47.192-40.584c-5.925-4.342-10.632-7.556-13.853-9.691l-3.675-2.409a8.329,8.329,0,0,0-1.291-.758,7.868,7.868,0,0,0,1.173.935c.887.64,2.067,1.488,3.564,2.572,3.142,2.246,7.772,5.562,13.619,9.992a415.066,415.066,0,0,1,46.643,40.972c9.228,9.341,18.912,19.994,29.1,31.619,10.174,11.65,20.965,24.165,31.817,37.748a500.017,500.017,0,0,1,31.955,44.166c5.1,7.962,9.786,16.364,14.563,24.93q7.139,12.845,14.47,26.046c19.415,35.237,36.823,69.44,50.068,101.7,13.3,32.227,22.351,62.431,27.616,88.275" transform="translate(-62.695 -279.259)" fill="#e0e0e0"/>
                  </g>
                </g>
              </g>
            </g>
          </g>
          <g id="Group_14" data-name="Group 14" transform="translate(173.379 55.723)">
            <g id="Group_13" data-name="Group 13">
              <g id="Group_12" data-name="Group 12">
                <g id="Group_11" data-name="Group 11">
                  <g id="Group_10" data-name="Group 10">
                    <path id="Path_3" data-name="Path 3" d="M132.905,421.36c.138.007.34-1.7.59-4.8s.5-7.586.705-13.139c.424-11.1.488-26.452.495-43.374s.286-32.239.88-43.3c.281-5.533.551-10.01.78-13.1.211-3.094.261-4.816.122-4.834s-.456,1.672-.907,4.748c-.47,3.071-.962,7.545-1.425,13.084-.966,11.077-1.477,26.443-1.481,43.392.036,16.7.073,31.81.1,43.354-.02,5.215-.041,9.609-.059,13.136C132.7,419.629,132.763,421.353,132.905,421.36Z" transform="translate(-132.665 -298.812)" fill="#e0e0e0"/>
                  </g>
                </g>
              </g>
            </g>
          </g>
          <g id="Group_19" data-name="Group 19" transform="translate(29.619 164.924)">
            <g id="Group_18" data-name="Group 18">
              <g id="Group_17" data-name="Group 17">
                <g id="Group_16" data-name="Group 16">
                  <g id="Group_15" data-name="Group 15">
                    <path id="Path_4" data-name="Path 4" d="M69.29,348.47c.011.141,2.046.168,5.705.093,3.659-.05,8.951-.154,15.493-.07,13.084.061,31.154.78,51.055,2.445,19.907,1.7,37.855,4.006,50.787,6.05,6.476.975,11.7,1.905,15.307,2.527s5.619.923,5.653.785-1.928-.69-5.5-1.57c-3.57-.862-8.765-2.012-15.23-3.178-12.907-2.416-30.891-4.956-50.855-6.665a500.731,500.731,0,0,0-51.23-1.846c-6.562.1-11.866.424-15.525.726C71.3,348.086,69.283,348.327,69.29,348.47Z" transform="translate(-69.29 -346.952)" fill="#e0e0e0"/>
                  </g>
                </g>
              </g>
            </g>
          </g>
          <g id="Group_24" data-name="Group 24" transform="translate(251.339 141.137)">
            <g id="Group_23" data-name="Group 23">
              <g id="Group_22" data-name="Group 22">
                <g id="Group_21" data-name="Group 21">
                  <g id="Group_20" data-name="Group 20">
                    <path id="Path_5" data-name="Path 5" d="M167.049,524.24a7.316,7.316,0,0,0,.789-1.821c.51-1.45,1.134-3.219,1.89-5.36,1.62-4.661,3.786-11.469,6.354-19.914,5.147-16.888,11.521-40.439,18.2-66.521s12.835-49.671,17.621-66.641c2.352-8.252,4.29-15.039,5.728-20.087.612-2.189,1.116-3.992,1.529-5.476a7.258,7.258,0,0,0,.4-1.953,7.574,7.574,0,0,0-.792,1.828c-.51,1.447-1.132,3.214-1.887,5.356-1.62,4.662-3.786,11.469-6.354,19.914C205.383,380.453,199.009,404,192.324,430.1s-12.835,49.66-17.619,66.634c-2.357,8.248-4.29,15.04-5.728,20.08-.612,2.189-1.116,4-1.529,5.476A7.351,7.351,0,0,0,167.049,524.24Z" transform="translate(-167.033 -336.466)" fill="#e0e0e0"/>
                  </g>
                </g>
              </g>
            </g>
          </g>
          <g id="Group_29" data-name="Group 29" transform="translate(57.38 287.745)">
            <g id="Group_28" data-name="Group 28">
              <g id="Group_27" data-name="Group 27">
                <g id="Group_26" data-name="Group 26">
                  <g id="Group_25" data-name="Group 25">
                    <path id="Path_6" data-name="Path 6" d="M81.528,401.125a7.617,7.617,0,0,0,1.942.576c1.52.34,3.382.758,5.642,1.266,5.2,1.114,12.229,2.616,20.774,4.439,17.544,3.754,41.711,9.216,68.408,15.289s50.948,11.322,68.574,14.713c8.81,1.7,15.954,3,20.908,3.8,2.289.354,4.176.646,5.712.887a7.428,7.428,0,0,0,2.017.168,7.763,7.763,0,0,0-1.944-.578l-5.639-1.261c-5.206-1.114-12.227-2.613-20.772-4.442-17.544-3.752-41.714-9.217-68.42-15.289s-50.937-11.319-68.562-14.711c-8.813-1.7-15.954-3-20.912-3.8-2.289-.356-4.174-.651-5.71-.887A7.39,7.39,0,0,0,81.528,401.125Z" transform="translate(-81.528 -401.096)" fill="#e0e0e0"/>
                  </g>
                </g>
              </g>
            </g>
          </g>
        </g>
        <g id="Group_35" data-name="Group 35" transform="translate(183.518 300.819)">
          <g id="Group_32" data-name="Group 32">
            <g id="Group_31" data-name="Group 31">
              <path id="Path_7" data-name="Path 7" d="M174.417,253.131a4.569,4.569,0,0,1-4.117-2.588l-9.836-20.477a4.56,4.56,0,0,1,3.325-6.467,14.169,14.169,0,0,0,9.287-6.354,12.759,12.759,0,0,0,1.955-9.929,13.067,13.067,0,0,0-6.388-7.944,14.57,14.57,0,0,0-11.14-1.538c-7.1,2.121-12.186,10.435-11.1,18.156a4.562,4.562,0,1,1-9.035,1.268c-1.7-12.136,6.156-24.773,17.528-28.167a23.539,23.539,0,0,1,18.272,2.359,22.2,22.2,0,0,1,10.72,13.669,21.9,21.9,0,0,1-3.167,17.106,23.856,23.856,0,0,1-9.779,8.586l7.586,15.781a4.566,4.566,0,0,1-4.11,6.538Z" transform="translate(-137.135 -188.196)" fill="#e0e0e0"/>
            </g>
          </g>
          <g id="Group_34" data-name="Group 34" transform="translate(40.025 68.793)">
            <g id="Group_33" data-name="Group 33">
              <path id="Path_8" data-name="Path 8" d="M161.833,220.554a3.731,3.731,0,1,1-5.022-1.62A3.732,3.732,0,0,1,161.833,220.554Z" transform="translate(-154.779 -218.523)" fill="#e0e0e0"/>
            </g>
          </g>
        </g>
        <g id="Group_40" data-name="Group 40" transform="translate(70.093 251.804)">
          <g id="Group_37" data-name="Group 37">
            <g id="Group_36" data-name="Group 36">
              <path id="Path_9" data-name="Path 9" d="M113.166,211.935a3.19,3.19,0,0,1-2.874-1.806l-6.869-14.3a3.183,3.183,0,0,1,2.323-4.519,9.888,9.888,0,0,0,6.485-4.435,8.913,8.913,0,0,0,1.366-6.934,9.126,9.126,0,0,0-4.462-5.549,10.174,10.174,0,0,0-7.781-1.073C96.4,174.8,92.846,180.607,93.6,186a3.185,3.185,0,1,1-6.308.887c-1.191-8.475,4.3-17.3,12.24-19.672a16.423,16.423,0,0,1,12.757,1.649,15.5,15.5,0,0,1,7.488,9.545,15.279,15.279,0,0,1-2.212,11.945,16.654,16.654,0,0,1-6.828,6l5.3,11.022a3.186,3.186,0,0,1-2.872,4.564Z" transform="translate(-87.132 -166.588)" fill="#f5f5f5"/>
            </g>
          </g>
          <g id="Group_39" data-name="Group 39" transform="translate(27.95 48.042)">
            <g id="Group_38" data-name="Group 38">
              <path id="Path_10" data-name="Path 10" d="M104.381,189.185a2.606,2.606,0,1,1-3.509-1.13A2.608,2.608,0,0,1,104.381,189.185Z" transform="translate(-99.454 -187.767)" fill="#f5f5f5"/>
            </g>
          </g>
        </g>
        <g id="Group_45" data-name="Group 45" transform="translate(623.53 295.902)">
          <g id="Group_42" data-name="Group 42" transform="translate(0 7.14)">
            <g id="Group_41" data-name="Group 41">
              <path id="Path_11" data-name="Path 11" d="M369.722,191a3.191,3.191,0,0,1-.4,3.373l-9.988,12.324a3.183,3.183,0,0,1-5.074-.166,9.893,9.893,0,0,0-6.785-3.965,8.908,8.908,0,0,0-6.853,1.733,9.128,9.128,0,0,0-3.105,6.406,10.174,10.174,0,0,0,2.357,7.49c3.462,3.849,10.228,4.575,14.779,1.583a3.185,3.185,0,0,1,3.5,5.324c-7.15,4.7-17.476,3.514-23.015-2.65a16.439,16.439,0,0,1-3.97-12.238,15.515,15.515,0,0,1,5.426-10.85,15.285,15.285,0,0,1,11.744-3.112,16.666,16.666,0,0,1,8.341,3.609l7.7-9.5a3.187,3.187,0,0,1,5.353.64Z" transform="translate(-331.109 -189.176)" fill="#f5f5f5"/>
            </g>
          </g>
          <g id="Group_44" data-name="Group 44" transform="translate(38.864)">
            <g id="Group_43" data-name="Group 43">
              <path id="Path_12" data-name="Path 12" d="M348.782,187.046a2.606,2.606,0,1,1,.476,3.654A2.605,2.605,0,0,1,348.782,187.046Z" transform="translate(-348.242 -186.029)" fill="#f5f5f5"/>
            </g>
          </g>
        </g>
        <g id="Group_50" data-name="Group 50" transform="translate(590.273 0)">
          <g id="Group_47" data-name="Group 47" transform="translate(0 7.141)">
            <g id="Group_46" data-name="Group 46">
              <path id="Path_13" data-name="Path 13" d="M355.061,60.552a3.191,3.191,0,0,1-.4,3.371L344.669,76.25a3.183,3.183,0,0,1-5.077-.168,9.9,9.9,0,0,0-6.785-3.963,8.9,8.9,0,0,0-6.851,1.733,9.109,9.109,0,0,0-3.105,6.4,10.17,10.17,0,0,0,2.357,7.493c3.459,3.847,10.226,4.573,14.776,1.583a3.186,3.186,0,1,1,3.5,5.324c-7.152,4.7-17.478,3.514-23.017-2.649A16.438,16.438,0,0,1,316.5,79.768a15.5,15.5,0,0,1,5.424-10.852,15.287,15.287,0,0,1,11.744-3.11,16.654,16.654,0,0,1,8.341,3.607l7.7-9.5a3.185,3.185,0,0,1,4.48-.467A3.152,3.152,0,0,1,355.061,60.552Z" transform="translate(-316.448 -58.731)" fill="#f5f5f5"/>
            </g>
          </g>
          <g id="Group_49" data-name="Group 49" transform="translate(38.862)">
            <g id="Group_48" data-name="Group 48">
              <path id="Path_14" data-name="Path 14" d="M334.12,56.6a2.606,2.606,0,1,1,.479,3.654A2.608,2.608,0,0,1,334.12,56.6Z" transform="translate(-333.58 -55.583)" fill="#f5f5f5"/>
            </g>
          </g>
        </g>
        <g id="Group_55" data-name="Group 55" transform="translate(367.785 44.172)">
          <g id="Group_52" data-name="Group 52" transform="translate(0.142 10.276)">
            <g id="Group_51" data-name="Group 51">
              <path id="Path_15" data-name="Path 15" d="M227.552,79.586a4.149,4.149,0,0,1,3.736,2.348l8.926,18.583a4.139,4.139,0,0,1-3.019,5.871,12.857,12.857,0,0,0-8.427,5.764,11.581,11.581,0,0,0-1.774,9.012,11.843,11.843,0,0,0,5.8,7.207,13.219,13.219,0,0,0,10.108,1.4c6.445-1.926,11.058-9.471,10.074-16.478a4.14,4.14,0,1,1,8.2-1.15c1.545,11.013-5.587,22.48-15.908,25.563a21.359,21.359,0,0,1-16.58-2.141,20.149,20.149,0,0,1-9.729-12.406,19.861,19.861,0,0,1,2.872-15.523,21.668,21.668,0,0,1,8.876-7.792l-6.885-14.323a4.142,4.142,0,0,1,3.732-5.932Z" transform="translate(-218.429 -79.586)" fill="#e0e0e0"/>
            </g>
          </g>
          <g id="Group_54" data-name="Group 54">
            <g id="Group_53" data-name="Group 53">
              <path id="Path_16" data-name="Path 16" d="M218.74,79.987a3.387,3.387,0,1,1,4.559,1.47A3.388,3.388,0,0,1,218.74,79.987Z" transform="translate(-218.366 -75.056)" fill="#e0e0e0"/>
            </g>
          </g>
        </g>
        <g id="Group_60" data-name="Group 60" transform="translate(675.516 411.198)">
          <g id="Group_57" data-name="Group 57" transform="translate(0.142 10.275)">
            <g id="Group_56" data-name="Group 56">
              <path id="Path_17" data-name="Path 17" d="M363.212,241.385a4.141,4.141,0,0,1,3.734,2.35l8.926,18.583a4.137,4.137,0,0,1-3.017,5.871,12.849,12.849,0,0,0-8.427,5.764,11.576,11.576,0,0,0-1.774,9.01,11.851,11.851,0,0,0,5.8,7.209,13.214,13.214,0,0,0,10.11,1.4c6.444-1.924,11.059-9.468,10.074-16.475a4.139,4.139,0,1,1,8.2-1.15c1.547,11.013-5.587,22.48-15.906,25.56a21.358,21.358,0,0,1-16.58-2.141,20.151,20.151,0,0,1-9.729-12.4,19.867,19.867,0,0,1,2.872-15.525,21.664,21.664,0,0,1,8.876-7.79l-6.885-14.323a4.146,4.146,0,0,1,3.731-5.934Z" transform="translate(-354.089 -241.385)" fill="#e0e0e0"/>
            </g>
          </g>
          <g id="Group_59" data-name="Group 59">
            <g id="Group_58" data-name="Group 58">
              <path id="Path_18" data-name="Path 18" d="M354.4,241.788a3.386,3.386,0,1,1,4.557,1.47A3.388,3.388,0,0,1,354.4,241.788Z" transform="translate(-354.026 -236.855)" fill="#e0e0e0"/>
            </g>
          </g>
        </g>
        <g id="Group_84" data-name="Group 84" transform="translate(506.756 539.53)">
          <g id="Group_62" data-name="Group 62">
            <g id="Group_61" data-name="Group 61">
              <path id="Path_19" data-name="Path 19" d="M519.574,295.454s-17.439-13.409-42.875,28.779-35.691,66.829-35.691,66.829-6.553,8.751-12.426,2.307S415.293,369.3,404.366,371.6c-11.335,2.384-15.876,14.52-15.06,32.885s1.134,58.672,1.148,62.315c.016,3.579-2.4,8.677-7.1,4.927s-30.9-37.472-46.157-24.084-4.571,64.178-3.509,69.753-.175,7.835-2.872,9-10.432-11-18.274-20.282-18.567-18.678-26.722-10.217-13.225,45.638,17.988,108.838l16.38,28.339,32.874.52c70.416-3.176,100.526-25.56,104-36.789s-9.929-16.083-21.847-18.469-26.307-3.289-26.586-6.213,1.1-5.1,6.5-6.86,55.036-16.925,59.394-36.748-37.819-26.488-43.374-28.8-2.255-6.882.885-8.6c3.2-1.747,38.649-20.928,55.129-29.079s24.914-17.986,21.529-29.06c-3.264-10.682-22.278-8.668-30.757-10.7s-3.979-11.993-3.979-11.993,16.632-20.878,41.3-63.52,3.954-51.563,3.954-51.563" transform="translate(-279.631 -293.429)" fill="#fff"/>
            </g>
          </g>
          <g id="Group_65" data-name="Group 65" transform="translate(13.536 39.767)">
            <g id="Group_64" data-name="Group 64">
              <g id="Group_63" data-name="Group 63">
                <path id="Path_20" data-name="Path 20" d="M489.162,310.96s-.145.32-.474.919q-.527.949-1.474,2.647c-1.336,2.352-3.273,5.759-5.755,10.128-5.006,8.792-12.345,21.459-21.468,37.079-18.238,31.245-43.794,74.195-72.169,121.539-28.387,47.36-54.04,90.251-72.435,121.4-9.167,15.557-16.589,28.16-21.745,36.911-2.554,4.326-4.544,7.7-5.921,10.031-.669,1.114-1.189,1.976-1.561,2.6-.356.583-.563.867-.563.867s.145-.318.472-.919q.527-.946,1.474-2.645c1.336-2.355,3.273-5.759,5.755-10.128,5.006-8.79,12.342-21.457,21.468-37.075,18.238-31.247,43.8-74.2,72.181-121.559s54.029-90.232,72.423-121.382l21.745-36.911c2.554-4.328,4.546-7.7,5.921-10.033q1-1.671,1.563-2.6C488.956,311.246,489.162,310.96,489.162,310.96Z" transform="translate(-285.598 -310.96)" fill="#e0e0e0"/>
              </g>
            </g>
          </g>
          <g id="Group_68" data-name="Group 68" transform="translate(134.095 103.241)">
            <g id="Group_67" data-name="Group 67">
              <g id="Group_66" data-name="Group 66">
                <path id="Path_21" data-name="Path 21" d="M338.766,338.942a10.585,10.585,0,0,1,.667,2.273c.37,1.477.842,3.627,1.4,6.288,1.107,5.326,2.445,12.721,3.779,20.906,1.284,8.078,2.443,15.382,3.332,20.969.415,2.516.767,4.637,1.048,6.345a10.708,10.708,0,0,1,.295,2.348,10.549,10.549,0,0,1-.683-2.268c-.365-1.479-.837-3.629-1.368-6.3-1.055-5.337-2.3-12.746-3.629-20.933-1.341-8.062-2.552-15.355-3.48-20.935-.431-2.513-.792-4.637-1.082-6.342A10.647,10.647,0,0,1,338.766,338.942Z" transform="translate(-338.745 -338.942)" fill="#e0e0e0"/>
              </g>
            </g>
          </g>
          <g id="Group_71" data-name="Group 71" transform="translate(147.594 148.798)">
            <g id="Group_70" data-name="Group 70">
              <g id="Group_69" data-name="Group 69">
                <path id="Path_22" data-name="Path 22" d="M344.7,373.39c-.059-.274,15.065-3.709,33.772-7.672s33.928-6.951,33.985-6.676-15.06,3.709-33.774,7.672S344.753,373.665,344.7,373.39Z" transform="translate(-344.696 -359.025)" fill="#e0e0e0"/>
              </g>
            </g>
          </g>
          <g id="Group_74" data-name="Group 74" transform="translate(100.731 233.875)">
            <g id="Group_73" data-name="Group 73">
              <g id="Group_72" data-name="Group 72">
                <path id="Path_23" data-name="Path 23" d="M324.037,396.57a10.917,10.917,0,0,1,2.416.061c1.756.129,3.949.295,6.551.49,5.53.406,13.168.935,21.618,1.209,8.454.293,16.112.29,21.656.245l6.567-.045a11,11,0,0,1,2.416.1,11.019,11.019,0,0,1-2.4.3c-1.549.122-3.79.261-6.567.37-5.549.229-13.229.345-21.706.05-8.475-.275-16.126-.919-21.65-1.509-2.761-.306-4.991-.578-6.526-.812A11.2,11.2,0,0,1,324.037,396.57Z" transform="translate(-324.037 -396.531)" fill="#e0e0e0"/>
              </g>
            </g>
          </g>
          <g id="Group_77" data-name="Group 77" transform="translate(76.603 182.396)">
            <g id="Group_76" data-name="Group 76">
              <g id="Group_75" data-name="Group 75">
                <path id="Path_24" data-name="Path 24" d="M313.409,373.838a9.615,9.615,0,0,1,1.148,1.919q1.136,2.2,2.79,5.394c2.316,4.575,5.451,10.925,8.858,17.966s6.442,13.445,8.593,18.1l2.5,5.535a9.456,9.456,0,0,1,.792,2.089,9.335,9.335,0,0,1-1.148-1.917q-1.14-2.2-2.79-5.394c-2.316-4.575-5.453-10.927-8.86-17.97s-6.44-13.44-8.59-18.1c-.987-2.18-1.822-4.031-2.5-5.535A9.461,9.461,0,0,1,313.409,373.838Z" transform="translate(-313.4 -373.837)" fill="#e0e0e0"/>
              </g>
            </g>
          </g>
          <g id="Group_80" data-name="Group 80" transform="translate(27.299 239.601)">
            <g id="Group_79" data-name="Group 79">
              <g id="Group_78" data-name="Group 78">
                <path id="Path_25" data-name="Path 25" d="M291.672,399.055a15.5,15.5,0,0,1,1.445,2.468c.937,1.8,2.148,4.117,3.6,6.9,3,5.846,7.084,13.953,11.537,22.936s8.436,17.145,11.272,23.072c1.336,2.842,2.448,5.211,3.312,7.043a15.428,15.428,0,0,1,1.089,2.645,15.3,15.3,0,0,1-1.445-2.468c-.937-1.8-2.148-4.117-3.6-6.9-3-5.846-7.084-13.955-11.539-22.94s-8.434-17.14-11.269-23.067c-1.336-2.842-2.448-5.208-3.312-7.043A15.514,15.514,0,0,1,291.672,399.055Z" transform="translate(-291.665 -399.055)" fill="#e0e0e0"/>
              </g>
            </g>
          </g>
          <g id="Group_83" data-name="Group 83" transform="translate(59.227 302.843)">
            <g id="Group_82" data-name="Group 82">
              <g id="Group_81" data-name="Group 81">
                <path id="Path_26" data-name="Path 26" d="M305.74,426.986a17.423,17.423,0,0,1,3.065,0c2.148.082,4.95.19,8.327.322,7.03.263,16.743.592,27.473.651,10.734.075,20.452-.113,27.484-.3,3.378-.086,6.181-.156,8.33-.213a17.714,17.714,0,0,1,3.062.039,17.732,17.732,0,0,1-3.042.358c-1.962.163-4.8.356-8.323.535-7.032.37-16.766.671-27.518.6-10.748-.059-20.475-.5-27.5-.951-3.514-.234-6.356-.451-8.316-.644A18,18,0,0,1,305.74,426.986Z" transform="translate(-305.74 -426.934)" fill="#e0e0e0"/>
              </g>
            </g>
          </g>
        </g>
      </g>
      <g id="Character" transform="translate(180.709 5779.497)">
        <g id="Group_196" data-name="Group 196" transform="translate(0 0)">
          <g id="Group_183" data-name="Group 183" transform="translate(4.977)">
            <g id="Group_130" data-name="Group 130" transform="translate(0 245.497)">
              <g id="Group_90" data-name="Group 90">
                <g id="Group_89" data-name="Group 89">
                  <g id="Group_88" data-name="Group 88">
                    <g id="Group_87" data-name="Group 87">
                      <path id="Path_29" data-name="Path 29" d="M622.393,566.03l-34.55-164.781s-20.25-79.417-89.974-106.783l-4.811-1.479c-.1-.039-6.615-2.03-6.717-2.067-2.8-1.093-14.25-4.725-17.258-5.66-94.009-32.588-118.95-24.111-216.914,9.321,0,0-43.522,11.707-64.613,68.478s-61.471,145.561-61.471,145.561l97.734,34.514,18.732-27.829v190.38H511.357l-7.418-87.635-1.3-107.949" transform="translate(-126.085 -264.719)" fill="#009de0"/>
                    </g>
                  </g>
                </g>
              </g>
              <g id="Group_92" data-name="Group 92" transform="translate(149.732 39.973)">
                <g id="Group_91" data-name="Group 91">
                  <path id="Path_30" data-name="Path 30" d="M265.07,282.35a14.963,14.963,0,0,1-2.241,2.082,29.75,29.75,0,0,1-2.82,2.225c-1.143.81-2.4,1.8-3.929,2.69a72.421,72.421,0,0,1-11,5.716,75.933,75.933,0,0,1-29.673,5.8,72.628,72.628,0,0,1-12.347-1.15c-1.749-.25-3.289-.694-4.653-1.014a29.9,29.9,0,0,1-3.45-1,15.2,15.2,0,0,1-2.86-1.084c.073-.238,4.192,1.209,11.1,2.273a79.444,79.444,0,0,0,12.211.885,79.631,79.631,0,0,0,29.262-5.721,79.267,79.267,0,0,0,10.979-5.419C261.642,285.049,264.916,282.157,265.07,282.35Z" transform="translate(-192.093 -282.341)" fill="#fafafa"/>
                </g>
              </g>
              <g id="Group_93" data-name="Group 93" transform="translate(116.468 320.453)" opacity="0.3">
                <path id="Path_31" data-name="Path 31" d="M177.429,408.581l22.04,25.448h21.656v27.7l224.011,51.8-1.826-21.577L232.56,419.592H197.243l-17.03-13.6Z" transform="translate(-177.429 -405.988)"/>
              </g>
              <g id="Group_94" data-name="Group 94" transform="translate(49.016 247.486)">
                <path id="Path_32" data-name="Path 32" d="M281.111,426.72l-18.685-3.459s-44.288-48.439-52.593-49.131c-6.835-.572-44.511-.2-57.633-.054a4.559,4.559,0,0,0-4.507,4.566h0a4.565,4.565,0,0,0,4.389,4.562l44.513,1.726.211,3.584-44.574.592c-4.539.347-7.449,7.536,7.08,8.833l37.283,1.325v2.318l-37.805,5.285c-1.91.268-6.935,1.243-6.982,3.171,0,0-2.287,4.739,8.484,6.084,3.7.463,36.514-.628,36.514-.628l-1.263,2.951-33.976,7.329a4.83,4.83,0,0,0-3.766,5.392h0a4.833,4.833,0,0,0,5.231,4.138l36.3-3.369,35.623,28.457H282.6Z" transform="translate(-147.693 -373.821)" fill="#ffbe9d"/>
              </g>
              <g id="Group_95" data-name="Group 95" transform="translate(376.56 245.384)">
                <path id="Path_33" data-name="Path 33" d="M411.835,428.822,303.116,450.2l-11.029-77.31" transform="translate(-292.087 -372.894)" fill="#009de0"/>
              </g>
              <g id="Group_99" data-name="Group 99" transform="translate(171.598 297.722)">
                <g id="Group_96" data-name="Group 96" transform="translate(0 0.03)">
                  <path id="Path_34" data-name="Path 34" d="M403.245,402.49l-201.513-6.51.034,69.651,133.7,26.552,93.878,14.987c58.345,0,105.016-53.55,95.978-111.19l-.247.066Z" transform="translate(-201.732 -395.98)" fill="#009de0"/>
                </g>
                <g id="Group_98" data-name="Group 98">
                  <g id="Group_97" data-name="Group 97">
                    <path id="Path_35" data-name="Path 35" d="M458.722,401.225a15.982,15.982,0,0,1-2.611.184q-2.78.078-7.49.213l-27.552.5c-23.265.338-55.413.733-90.922.395s-67.669-1.633-90.893-3.205c-11.612-.776-21-1.524-27.477-2.178q-4.689-.48-7.454-.764a16.09,16.09,0,0,1-2.59-.372,16.2,16.2,0,0,1,2.618.054l7.477.467c6.488.463,15.883,1.041,27.5,1.674,23.222,1.286,55.34,2.391,90.84,2.74s67.628.122,90.895.068c11.521,0,20.9,0,27.557,0q4.716.055,7.495.084A16.193,16.193,0,0,1,458.722,401.225Z" transform="translate(-201.732 -395.967)" fill="#263238"/>
                  </g>
                </g>
              </g>
              <g id="Group_101" data-name="Group 101" transform="translate(171.135 298.38)">
                <g id="Group_100" data-name="Group 100">
                  <path id="Path_36" data-name="Path 36" d="M202,396.257a7.665,7.665,0,0,1,.077,1.239c.018.885.043,2.082.075,3.609.034,3.241.079,7.867.141,13.728.054,11.916.134,28.845.227,49.224l-.39-.483c22.757,4.882,50.034,10.92,79.4,17.086,40.264,8.516,76.908,15.241,103.553,19.356,13.322,2.044,24.129,3.546,31.6,4.535l8.606,1.132,2.237.324a3.832,3.832,0,0,1,.758.152,3.721,3.721,0,0,1-.771-.032l-2.25-.206-8.636-.914c-7.495-.848-18.324-2.223-31.671-4.165-26.695-3.906-63.393-10.507-103.671-19.027-29.374-6.165-56.637-12.274-79.365-17.272l-.392-.086,0-.4c.079-20.379.145-37.308.191-49.224.057-5.862.1-10.487.132-13.728.029-1.527.054-2.724.073-3.609A7.566,7.566,0,0,1,202,396.257Z" transform="translate(-201.528 -396.257)" fill="#263238"/>
                </g>
              </g>
              <g id="Group_103" data-name="Group 103" transform="translate(135.283 27.386)">
                <g id="Group_102" data-name="Group 102">
                  <path id="Path_37" data-name="Path 37" d="M204.839,357.295a18.717,18.717,0,0,1,.145-3.4c.138-2.18.356-5.333.442-9.232a158.722,158.722,0,0,0-2.112-30.331c-2.066-11.673-4.677-22.312-8.729-28.924a23.137,23.137,0,0,0-6.02-6.783c-1.76-1.252-2.892-1.715-2.84-1.826.016-.039.3.057.842.274a14.348,14.348,0,0,1,2.259,1.173,21.9,21.9,0,0,1,6.467,6.719,48.991,48.991,0,0,1,5.44,12.71,143.083,143.083,0,0,1,3.747,16.462,140.956,140.956,0,0,1,1.781,30.558c-.193,3.918-.54,7.073-.819,9.246A18.739,18.739,0,0,1,204.839,357.295Z" transform="translate(-185.723 -276.792)" fill="#263238"/>
                </g>
              </g>
              <g id="Group_105" data-name="Group 105" transform="translate(375.416 46.667)">
                <g id="Group_104" data-name="Group 104">
                  <path id="Path_38" data-name="Path 38" d="M292.173,285.292c.327,0,.59,46.3.59,103.405,0,57.121-.263,103.412-.59,103.412s-.59-46.291-.59-103.412C291.583,331.595,291.846,285.292,292.173,285.292Z" transform="translate(-291.583 -285.292)" fill="#263238"/>
                </g>
              </g>
              <g id="Group_107" data-name="Group 107" transform="translate(391.789 278.979)">
                <g id="Group_106" data-name="Group 106">
                  <path id="Path_39" data-name="Path 39" d="M352.563,387.983c0,.22-3.43.113-8.879.787a72.615,72.615,0,0,0-9.443,1.84,71.03,71.03,0,0,0-21.368,9.668,72.765,72.765,0,0,0-7.615,5.88c-4.1,3.648-6.283,6.293-6.451,6.15a9.358,9.358,0,0,1,1.409-1.955,47.518,47.518,0,0,1,4.478-4.809,63.018,63.018,0,0,1,7.57-6.165,66.073,66.073,0,0,1,21.706-9.822,63.021,63.021,0,0,1,9.625-1.615,47.357,47.357,0,0,1,6.569-.188A9.359,9.359,0,0,1,352.563,387.983Z" transform="translate(-298.801 -387.704)" fill="#263238"/>
                </g>
              </g>
              <g id="Group_109" data-name="Group 109" transform="translate(138.933 64.565)" opacity="0.3">
                <g id="Group_108" data-name="Group 108">
                  <path id="Path_40" data-name="Path 40" d="M204.685,517.524c33.963-20.277,55.158-53.863,75.874-87.558S320.564,360.9,349.287,333.7c13.191-12.488,28.618-23.022,33.491-40.52l-51.627,41.026L187.332,499.6Z" transform="translate(-187.332 -293.182)"/>
                </g>
              </g>
              <g id="Group_111" data-name="Group 111" transform="translate(29.439 199.908)">
                <g id="Group_110" data-name="Group 110">
                  <path id="Path_41" data-name="Path 41" d="M172.672,353.093c.041.449-8.114.136-17.4,3.3a87.085,87.085,0,0,0-11.474,5.063c-2.865,1.484-4.643,2.414-4.732,2.264-.079-.129,1.545-1.313,4.328-2.994a61.557,61.557,0,0,1,11.5-5.451A46.406,46.406,0,0,1,167.4,352.9C170.667,352.752,172.674,352.954,172.672,353.093Z" transform="translate(-139.063 -352.846)" fill="#263238"/>
                </g>
              </g>
              <g id="Group_113" data-name="Group 113" transform="translate(29.439 199.908)">
                <g id="Group_112" data-name="Group 112">
                  <path id="Path_42" data-name="Path 42" d="M172.672,353.093c.041.449-8.114.136-17.4,3.3a87.085,87.085,0,0,0-11.474,5.063c-2.865,1.484-4.643,2.414-4.732,2.264-.079-.129,1.545-1.313,4.328-2.994a61.557,61.557,0,0,1,11.5-5.451A46.406,46.406,0,0,1,167.4,352.9C170.667,352.752,172.674,352.954,172.672,353.093Z" transform="translate(-139.063 -352.846)" fill="#263238"/>
                </g>
              </g>
              <g id="Group_115" data-name="Group 115" transform="translate(172.333 266.993)">
                <g id="Group_114" data-name="Group 114">
                  <path id="Path_43" data-name="Path 43" d="M404.865,389.717c-.1.206-2.457-2.069-7.837-3.609-5.322-1.654-13.692-1.626-23.188,1.454-9.62,2.836-19.592,9.647-31.921,14.772-6.154,2.482-13.143,4.412-20.5,3.918-7.363-.372-14.574-3.167-21.42-6.576-6.882-3.432-13.284-7.3-19.8-10.326a59.908,59.908,0,0,0-19.742-5.576,64.339,64.339,0,0,0-33.974,6.145,61.653,61.653,0,0,0-18.919,13.9l-2.463,2.779c-.633.842-1.175,1.565-1.636,2.18-.415.538-.753.973-1.028,1.327a2.092,2.092,0,0,1-.383.431,2.059,2.059,0,0,1,.284-.5c.25-.374.556-.832.932-1.4q.657-.953,1.554-2.257l2.4-2.869a60.269,60.269,0,0,1,18.9-14.343,64.853,64.853,0,0,1,34.443-6.474,60.622,60.622,0,0,1,20.123,5.607c6.594,3.046,13.016,6.919,19.835,10.317,6.792,3.382,13.837,6.109,20.969,6.481,7.116.5,13.933-1.35,20.021-3.775,12.188-4.99,22.287-11.775,32.075-14.559,9.647-3.017,18.193-2.919,23.569-1.1a23.854,23.854,0,0,1,5.891,2.706l1.375.98A2.2,2.2,0,0,1,404.865,389.717Z" transform="translate(-202.056 -382.42)" fill="#fafafa"/>
                </g>
              </g>
              <g id="Group_117" data-name="Group 117" transform="translate(374.267 189.107)">
                <g id="Group_116" data-name="Group 116">
                  <path id="Path_44" data-name="Path 44" d="M390.482,349.378a18.526,18.526,0,0,0-4.083-.771c-2.661-.159-6.549.785-10.661,3.264-4.188,2.348-8.232,6.606-13.948,9.813a18.159,18.159,0,0,1-9.924,2.5,26.954,26.954,0,0,1-10.448-3.321c-3.33-1.681-6.417-3.555-9.616-4.827a44.676,44.676,0,0,0-26.293-2.135,44.772,44.772,0,0,0-10.707,3.827c-2.414,1.209-3.657,2.064-3.722,1.96-.025-.034.27-.268.855-.681a25.135,25.135,0,0,1,2.65-1.685,41.052,41.052,0,0,1,10.736-4.235,44.989,44.989,0,0,1,17.1-.794,43.027,43.027,0,0,1,9.818,2.672c3.307,1.3,6.431,3.192,9.709,4.843a26.106,26.106,0,0,0,9.986,3.221,17.191,17.191,0,0,0,9.337-2.3c5.542-3.028,9.688-7.245,14.048-9.579,4.262-2.45,8.355-3.312,11.108-3a10.635,10.635,0,0,1,3.081.719A3.836,3.836,0,0,1,390.482,349.378Z" transform="translate(-291.076 -348.085)" fill="#fafafa"/>
                </g>
              </g>
              <g id="Group_119" data-name="Group 119" transform="translate(229.882 157.587)">
                <g id="Group_118" data-name="Group 118">
                  <path id="Path_45" data-name="Path 45" d="M371.451,335.955a7.911,7.911,0,0,1-1.545-.268c-.5-.1-1.109-.263-1.844-.386l-2.547-.338a43.618,43.618,0,0,0-16.167,1.654c-6.66,1.867-14.182,5.36-22.106,9.967-7.919,4.589-16.423,10.233-26.327,14.307a56.228,56.228,0,0,1-15.046,4.117,38.533,38.533,0,0,1-14.516-1,67,67,0,0,1-12.2-4.875c-3.675-1.819-7.034-3.6-10.171-5.074-6.234-3.028-11.7-4.494-15.557-4.707a27.37,27.37,0,0,0-4.437.136,8.234,8.234,0,0,1-1.563.1,7.545,7.545,0,0,1,1.529-.336,22.746,22.746,0,0,1,4.491-.358c3.931.068,9.559,1.452,15.886,4.408,3.185,1.431,6.578,3.18,10.251,4.952a67.478,67.478,0,0,0,12.05,4.7,37.731,37.731,0,0,0,14.1.9,55.77,55.77,0,0,0,14.733-4.063c9.768-4.017,18.238-9.588,26.234-14.159s15.643-8.039,22.428-9.827a42.143,42.143,0,0,1,16.441-1.3l2.561.449c.735.159,1.341.365,1.835.5A7.893,7.893,0,0,1,371.451,335.955Z" transform="translate(-227.426 -334.19)" fill="#fafafa"/>
                </g>
              </g>
              <g id="Group_121" data-name="Group 121" transform="translate(375.747 89.555)">
                <g id="Group_120" data-name="Group 120">
                  <path id="Path_46" data-name="Path 46" d="M360.14,304.208a12.4,12.4,0,0,1-2.425,1.409c-1.6.83-3.931,2.008-6.891,3.3a65.151,65.151,0,0,1-10.75,3.723,39.523,39.523,0,0,1-13.93.948c-4.941-.517-9.514-1.567-13.7-2.135a39.963,39.963,0,0,0-11.131-.2c-6.372.857-9.475,3.772-9.579,3.536-.027-.032.15-.211.51-.526a12.051,12.051,0,0,1,1.7-1.227,20.461,20.461,0,0,1,7.241-2.606,38.188,38.188,0,0,1,11.406-.052c4.256.517,8.838,1.531,13.676,2.037,9.727,1.157,18.342-1.946,24.24-4.265,2.978-1.186,5.358-2.246,7.016-2.947A13.313,13.313,0,0,1,360.14,304.208Z" transform="translate(-291.729 -304.199)" fill="#fafafa"/>
                </g>
              </g>
              <g id="Group_123" data-name="Group 123" transform="translate(50.384 124.222)">
                <g id="Group_122" data-name="Group 122">
                  <path id="Path_47" data-name="Path 47" d="M248.766,322.6a11.97,11.97,0,0,0-4.015-.966c-2.661-.143-6.542.957-10.4,3.854-1.967,1.386-4,3.108-6.433,4.693a23.742,23.742,0,0,1-8.59,3.443c-6.483,1.243-13.794.036-20.8-2.482-7.03-2.536-13.327-5.768-19.347-7.887a51.955,51.955,0,0,0-8.695-2.377,36.613,36.613,0,0,0-7.812-.472,24.871,24.871,0,0,0-10.868,2.908c-2.346,1.313-3.43,2.384-3.511,2.287-.027-.03.231-.3.755-.8a14.955,14.955,0,0,1,2.525-1.887,24.086,24.086,0,0,1,11.047-3.346,36.317,36.317,0,0,1,8.021.34,51.274,51.274,0,0,1,8.9,2.318c6.125,2.094,12.456,5.3,19.381,7.8,6.882,2.477,13.985,3.661,20.2,2.525a23.019,23.019,0,0,0,8.264-3.2c2.38-1.5,4.448-3.185,6.481-4.553,4-2.876,8.137-3.929,10.9-3.625a8.128,8.128,0,0,1,3.062.823A2.954,2.954,0,0,1,248.766,322.6Z" transform="translate(-148.296 -319.481)" fill="#fafafa"/>
                </g>
              </g>
              <g id="Group_125" data-name="Group 125" transform="translate(268.228 301.077)">
                <g id="Group_124" data-name="Group 124">
                  <path id="Path_48" data-name="Path 48" d="M254.746,397.448c.027-.027.277.186.726.626a15.868,15.868,0,0,1,1.787,2.1,21.928,21.928,0,0,1,.694,24c-3.012,4.888-8.155,8.754-11.038,14.366a13.694,13.694,0,0,0-1.132,8.831,33.377,33.377,0,0,0,2.947,8.1c2.479,4.956,4.77,9.761,4.682,14.209a11.451,11.451,0,0,1-4.244,9.046,7.308,7.308,0,0,1-2.507,1.2,2.66,2.66,0,0,1-.96.107,10.768,10.768,0,0,0,3.183-1.669,11.2,11.2,0,0,0,3.693-8.681c-.018-4.183-2.268-8.763-4.825-13.733a33.735,33.735,0,0,1-3.105-8.364,14.786,14.786,0,0,1,1.2-9.563,35.585,35.585,0,0,1,5.68-7.7,55.5,55.5,0,0,0,5.505-6.733,20.887,20.887,0,0,0,3.1-13.912,22.558,22.558,0,0,0-3.262-9.248C255.6,398.458,254.655,397.532,254.746,397.448Z" transform="translate(-244.33 -397.446)" fill="#fafafa"/>
                </g>
              </g>
              <g id="Group_127" data-name="Group 127" transform="translate(370.23 304.178)">
                <g id="Group_126" data-name="Group 126">
                  <path id="Path_49" data-name="Path 49" d="M292.8,495.3c-.03.03-.318-.222-.853-.739a9.243,9.243,0,0,1-1.753-2.727c-1.207-2.591-1.354-7.012.574-11.712a23.866,23.866,0,0,1,4.405-6.957c1.93-2.241,4.217-4.4,6.513-6.726a37.192,37.192,0,0,0,6.3-7.921,26.758,26.758,0,0,0,3.035-10.321c.751-7.47-.592-14.643-.971-21.232-.479-6.572.093-12.737,2.2-17.376a19.783,19.783,0,0,1,7.458-9.13,13.753,13.753,0,0,1,2.924-1.381,4.059,4.059,0,0,1,1.1-.256,29.772,29.772,0,0,0-3.768,2.021,20.069,20.069,0,0,0-6.941,9.071c-1.933,4.523-2.409,10.478-1.883,16.979.426,6.5,1.828,13.722,1.062,21.427a27.642,27.642,0,0,1-3.2,10.761,37.57,37.57,0,0,1-6.544,8.125c-4.7,4.594-9.108,8.627-10.92,13.241-1.951,4.491-1.937,8.7-.914,11.219A14.412,14.412,0,0,0,292.8,495.3Z" transform="translate(-289.297 -398.813)" fill="#fafafa"/>
                </g>
              </g>
              <g id="Group_129" data-name="Group 129" transform="translate(115.411 401.533)">
                <g id="Group_128" data-name="Group 128">
                  <path id="Path_50" data-name="Path 50" d="M446.938,470.955a14.373,14.373,0,0,1-2.527,1.6,21.833,21.833,0,0,1-8.232,2.35,35.558,35.558,0,0,1-13.467-1.513c-5.129-1.438-10.568-4.2-16.3-7.533-5.764-3.273-11.957-7.191-19.3-9.657s-15.836-2.681-24.345-.83c-8.545,1.778-17.088,5.292-25.894,8.956-8.81,3.638-17.973,7.638-28.017,9.672a49.91,49.91,0,0,1-15.1.846,40.439,40.439,0,0,1-14.091-4.174c-8.681-4.34-15.607-10.623-22.679-15.736a72.143,72.143,0,0,0-10.786-6.746l-2.767-1.318c-.93-.4-1.892-.705-2.826-1.059a45.515,45.515,0,0,0-5.646-1.685,56.643,56.643,0,0,0-21.4-.866,59.569,59.569,0,0,0-17,5.072c-1.2.526-2.282,1.193-3.366,1.749a25.314,25.314,0,0,0-3.019,1.794c-.937.622-1.853,1.186-2.693,1.776q-1.208.946-2.3,1.806a40.283,40.283,0,0,0-3.682,3.253,25.761,25.761,0,0,0-2.5,2.59c-.619.685-1.109,1.232-1.486,1.649a3.711,3.711,0,0,1-.54.538,3.572,3.572,0,0,1,.445-.612l1.4-1.731a23.384,23.384,0,0,1,2.434-2.684,38.6,38.6,0,0,1,3.636-3.357q1.089-.888,2.289-1.865c.837-.608,1.753-1.2,2.69-1.835a25.611,25.611,0,0,1,3.024-1.858c1.089-.574,2.175-1.261,3.384-1.81a59.548,59.548,0,0,1,17.163-5.3,57.11,57.11,0,0,1,21.743.737,47.025,47.025,0,0,1,5.762,1.688c.955.356,1.937.662,2.888,1.068l2.831,1.332a72.706,72.706,0,0,1,10.963,6.8c7.139,5.131,14.06,11.358,22.552,15.579a39.346,39.346,0,0,0,13.7,4.042,48.855,48.855,0,0,0,14.747-.837c9.868-2,18.984-5.955,27.8-9.584,8.817-3.648,17.428-7.173,26.116-8.951,8.645-1.856,17.383-1.6,24.878.966s13.685,6.553,19.411,9.863c5.7,3.382,11.031,6.145,16.074,7.624a35.673,35.673,0,0,0,13.238,1.688,22.479,22.479,0,0,0,8.166-2.105C446.06,471.506,446.894,470.889,446.938,470.955Z" transform="translate(-176.963 -441.731)" fill="#fafafa"/>
                </g>
              </g>
            </g>
            <g id="Group_182" data-name="Group 182" transform="translate(196.208)">
              <g id="Group_133" data-name="Group 133" transform="translate(18.132 44.138)">
                <g id="Group_132" data-name="Group 132">
                  <g id="Group_131" data-name="Group 131">
                    <path id="Path_51" data-name="Path 51" d="M265.415,429.686h0a47.17,47.17,0,0,0,49.308-42.979c1.318-14.976,2.359-27.763,2.359-27.763s38.651-.975,44.03-38.794,10.1-125.654,10.1-125.654h0a132.754,132.754,0,0,0-134.441-.531l-6.175,3.593L220.646,380.01A47.164,47.164,0,0,0,265.415,429.686Z" transform="translate(-220.575 -175.952)" fill="#ffbe9d"/>
                  </g>
                </g>
              </g>
              <g id="Group_137" data-name="Group 137" transform="translate(119.984 116.438)">
                <g id="Group_136" data-name="Group 136">
                  <g id="Group_135" data-name="Group 135">
                    <g id="Group_134" data-name="Group 134">
                      <path id="Path_52" data-name="Path 52" d="M265.475,253.581c.018-.413,3.33-.646,8.67-.694,1.384.029,2.5-.141,2.688-.862.354-.794.014-2.318-.47-4.033-.9-3.625-1.8-7.3-2.752-11.138-3.741-15.843-6.12-28.836-5.315-29.026s4.487,12.5,8.228,28.339c.871,3.863,1.7,7.549,2.522,11.192.3,1.642,1,3.607.011,5.766A3.6,3.6,0,0,1,276.422,255a8.733,8.733,0,0,1-2.366,0C268.737,254.506,265.459,253.994,265.475,253.581Z" transform="translate(-265.475 -207.825)" fill="#263238"/>
                    </g>
                  </g>
                </g>
              </g>
              <g id="Group_140" data-name="Group 140" transform="translate(67.208 206.151)">
                <g id="Group_139" data-name="Group 139">
                  <g id="Group_138" data-name="Group 138">
                    <path id="Path_53" data-name="Path 53" d="M289.773,267.815s-24.193-1.157-47.564-20.441c0,0,8.139,28.775,46.38,30.267Z" transform="translate(-242.209 -247.374)" fill="#eb996e"/>
                  </g>
                </g>
              </g>
              <g id="Group_142" data-name="Group 142" transform="translate(16.401 33.805)">
                <g id="Group_141" data-name="Group 141">
                  <path id="Path_54" data-name="Path 54" d="M371.723,209.905s-23.827,9.954-53.2-6.789c-19.272-10.984-42.108-17.092-47.421-13.388s-7.515,24.065-27.477,28.945c0,0-.8,39.037-16.258,36.791s-2.42-62.057-2.42-62.057l39.028-16.464,41.9-5.546,38.771,7.665,29.78,9.947Z" transform="translate(-219.811 -171.397)" fill="#263238"/>
                </g>
              </g>
              <g id="Group_150" data-name="Group 150" transform="translate(0 103.097)">
                <g id="Group_145" data-name="Group 145">
                  <g id="Group_144" data-name="Group 144">
                    <g id="Group_143" data-name="Group 143">
                      <path id="Path_55" data-name="Path 55" d="M240.312,204.433c-.61-.363-25.03-11.074-27.561,14.931s24.1,23.181,24.217,22.441S240.312,204.433,240.312,204.433Z" transform="translate(-212.581 -201.944)" fill="#ffbe9d"/>
                    </g>
                  </g>
                </g>
                <g id="Group_149" data-name="Group 149" transform="translate(6.665 8.166)">
                  <g id="Group_148" data-name="Group 148">
                    <g id="Group_147" data-name="Group 147">
                      <g id="Group_146" data-name="Group 146">
                        <path id="Path_56" data-name="Path 56" d="M226.255,226.611c-.1-.093-.483.275-1.282.551a4.558,4.558,0,0,1-3.394-.261c-2.649-1.275-4.539-5.862-4.208-10.562a15.04,15.04,0,0,1,1.9-6.363c.98-1.826,2.341-3.033,3.747-3.146a2.317,2.317,0,0,1,2.552,1.5c.277.76.064,1.263.2,1.32.068.073.6-.381.5-1.474a2.91,2.91,0,0,0-.864-1.729,3.443,3.443,0,0,0-2.443-.907c-2.017-.057-4,1.613-5.124,3.57a15.463,15.463,0,0,0-2.275,7.1c-.345,5.254,1.862,10.419,5.514,11.873a4.878,4.878,0,0,0,4.21-.286C226.148,227.237,226.341,226.668,226.255,226.611Z" transform="translate(-215.519 -205.543)" fill="#eb996e"/>
                      </g>
                    </g>
                  </g>
                </g>
              </g>
              <g id="Group_151" data-name="Group 151" transform="translate(3.395)">
                <path id="Path_57" data-name="Path 57" d="M268.173,212.806c-5.315,5.662-10.711,11.392-17.308,15.491s-14.645,6.449-22.212,4.7-14.257-8.3-14.565-16.056,7.275-15.328,14.86-13.667c-5.149.093-9.455-5.739-7.849-10.632s8.531-7.039,12.621-3.911c-6.587-1.234-7.329-11.694-2.078-15.861s12.941-3.257,19.154-.74,11.918,6.424,18.472,7.833c10.278,2.212,20.826-2.066,29.916-7.347s17.73-11.741,27.863-14.54c12.44-3.439,25.876-.926,37.776,4.067,9.877,4.142,19.229,10.144,25.653,18.717s9.6,19.962,6.737,30.285-12.465,18.893-23.176,18.934c0,0-24.079,2.425-43.671-12.12s-60.9-12.621-60.9-12.621Z" transform="translate(-214.078 -156.495)" fill="#263238"/>
              </g>
              <g id="Group_153" data-name="Group 153" transform="translate(21.249 26.001)">
                <g id="Group_152" data-name="Group 152">
                  <path id="Path_58" data-name="Path 58" d="M221.952,167.991c-.05.082.465.492,1.5,1.2,1.019.735,2.6,1.688,4.677,2.86a85,85,0,0,0,18.748,7.456,90.281,90.281,0,0,0,29.836,2.838c11.394-.749,23.346-4.421,35.789-7.465,12.406-3.056,24.739-4.573,35.383-1.955,10.632,2.457,19.025,8.9,22.716,16.185a25.765,25.765,0,0,1,1.962,18.873c-1.352,4.448-3.246,6.417-3,6.583.075.059.538-.406,1.366-1.37a19.06,19.06,0,0,0,2.663-4.868,26.1,26.1,0,0,0-1.227-20.094c-3.761-8.01-12.669-15.069-23.861-17.8-11.254-2.913-24.1-1.35-36.648,1.74-12.6,3.09-24.324,6.758-35.344,7.615a92.82,92.82,0,0,1-29.151-2.189C231.005,173.626,222.21,167.438,221.952,167.991Z" transform="translate(-221.949 -167.957)" fill="#455a64"/>
                </g>
              </g>
              <g id="Group_155" data-name="Group 155" transform="translate(9.524 66.204)">
                <g id="Group_154" data-name="Group 154">
                  <path id="Path_59" data-name="Path 59" d="M216.835,185.7c-.293.15.556,2.693,3.362,5.918a26.507,26.507,0,0,0,30.614,6.617c3.888-1.776,5.71-3.743,5.505-4-.245-.361-2.42.973-6.206,2.162a28.685,28.685,0,0,1-28.516-6.163C218.638,187.583,217.207,185.472,216.835,185.7Z" transform="translate(-216.78 -185.68)" fill="#455a64"/>
                </g>
              </g>
              <g id="Group_157" data-name="Group 157" transform="translate(17.563 53.336)">
                <g id="Group_156" data-name="Group 156">
                  <path id="Path_60" data-name="Path 60" d="M220.447,180.041c-.662.313,1.332,5.038,6.37,8.5,5.015,3.5,10.14,3.693,10.2,2.963.152-.792-4.181-2.132-8.613-5.251C223.92,183.2,221.134,179.619,220.447,180.041Z" transform="translate(-220.324 -180.007)" fill="#455a64"/>
                </g>
              </g>
              <g id="Group_159" data-name="Group 159" transform="translate(169.256 71.189)">
                <g id="Group_158" data-name="Group 158">
                  <path id="Path_61" data-name="Path 61" d="M299.028,206.337c.345.084,1.077-1.2,1.273-3.527a14.383,14.383,0,0,0-9.357-14.379c-2.209-.767-3.679-.615-3.741-.265-.225.751,5.122,2.239,8.466,7.424C299.055,200.745,298.25,206.237,299.028,206.337Z" transform="translate(-287.196 -187.878)" fill="#263238"/>
                </g>
              </g>
              <g id="Group_161" data-name="Group 161" transform="translate(170.368 52.352)">
                <g id="Group_160" data-name="Group 160">
                  <path id="Path_62" data-name="Path 62" d="M311.883,179.584c-.769-.32-3.636,6.567-10.435,12.243-6.694,5.8-13.953,7.527-13.758,8.336-.032.721,8.187.123,15.561-6.218C310.69,187.687,312.6,179.668,311.883,179.584Z" transform="translate(-287.686 -179.573)" fill="#455a64"/>
                </g>
              </g>
              <g id="Group_167" data-name="Group 167" transform="translate(136.85 112.087)">
                <g id="Group_163" data-name="Group 163" transform="translate(6.608 2.192)">
                  <g id="Group_162" data-name="Group 162">
                    <path id="Path_63" data-name="Path 63" d="M287.5,212.907a5.85,5.85,0,0,1-6.358,5.124,5.6,5.6,0,0,1-5.3-6.011,5.854,5.854,0,0,1,6.354-5.129A5.6,5.6,0,0,1,287.5,212.907Z" transform="translate(-275.823 -206.873)" fill="#263238"/>
                  </g>
                </g>
                <g id="Group_166" data-name="Group 166">
                  <g id="Group_165" data-name="Group 165">
                    <g id="Group_164" data-name="Group 164">
                      <path id="Path_64" data-name="Path 64" d="M295.807,213.62c-.817.665-4.791-3.162-11.036-3.961-6.229-.889-11.231,1.726-11.809.873-.288-.383.624-1.651,2.808-2.845a16.054,16.054,0,0,1,9.575-1.636,15.411,15.411,0,0,1,8.661,4.1C295.734,211.875,296.206,213.33,295.807,213.62Z" transform="translate(-272.91 -205.907)" fill="#263238"/>
                    </g>
                  </g>
                </g>
              </g>
              <g id="Group_173" data-name="Group 173" transform="translate(79.487 104.542)">
                <g id="Group_169" data-name="Group 169" transform="translate(7.151 1.843)">
                  <g id="Group_168" data-name="Group 168">
                    <path id="Path_65" data-name="Path 65" d="M262.456,209.429a5.852,5.852,0,0,1-6.358,5.124,5.6,5.6,0,0,1-5.3-6.014,5.858,5.858,0,0,1,6.354-5.129A5.6,5.6,0,0,1,262.456,209.429Z" transform="translate(-250.774 -203.393)" fill="#263238"/>
                  </g>
                </g>
                <g id="Group_172" data-name="Group 172">
                  <g id="Group_171" data-name="Group 171">
                    <g id="Group_170" data-name="Group 170">
                      <path id="Path_66" data-name="Path 66" d="M270.519,210.3c-.819.662-4.8-3.164-11.038-3.963-6.227-.887-11.229,1.726-11.807.873-.288-.381.615-1.651,2.808-2.845a16.049,16.049,0,0,1,9.573-1.636,15.426,15.426,0,0,1,8.663,4.1C270.44,208.549,270.916,210,270.519,210.3Z" transform="translate(-247.622 -202.581)" fill="#263238"/>
                    </g>
                  </g>
                </g>
              </g>
              <g id="Group_175" data-name="Group 175" transform="translate(75.055 86.206)">
                <g id="Group_174" data-name="Group 174">
                  <path id="Path_67" data-name="Path 67" d="M270.59,203.373c-1.232,1.1-5.911-2.314-12.231-2.906-6.306-.751-11.6,1.6-12.572.268-.456-.637.386-2.25,2.711-3.793a16.754,16.754,0,0,1,20.239,2.155C270.686,201.091,271.169,202.846,270.59,203.373Z" transform="translate(-245.668 -194.497)" fill="#263238"/>
                </g>
              </g>
              <g id="Group_177" data-name="Group 177" transform="translate(135.948 101.391)">
                <g id="Group_176" data-name="Group 176">
                  <path id="Path_68" data-name="Path 68" d="M295.91,205.235c.272.739-.8,1.978-3.076,2.965a18.485,18.485,0,0,1-18.15-2.851c-1.86-1.636-2.5-3.146-2.017-3.766,1.082-1.282,5.728.926,11.63,1.772C290.173,204.359,295.273,203.683,295.91,205.235Z" transform="translate(-272.512 -201.192)" fill="#263238"/>
                </g>
              </g>
              <g id="Group_179" data-name="Group 179" transform="translate(113.854 172.582)">
                <g id="Group_178" data-name="Group 178">
                  <path id="Path_69" data-name="Path 69" d="M264.117,232.577c.653.041,1.112,1.216,1.025,2.625s-.683,2.52-1.334,2.482-1.111-1.216-1.025-2.625S263.468,232.538,264.117,232.577Z" transform="translate(-262.772 -232.576)" fill="#263238"/>
                </g>
              </g>
              <g id="Group_181" data-name="Group 181" transform="translate(6.446 138.536)">
                <g id="Group_180" data-name="Group 180">
                  <path id="Path_70" data-name="Path 70" d="M232.082,231.879c.059.02-.034.606-.567,1.524a7.931,7.931,0,0,1-3.3,3,8.258,8.258,0,0,1-6.619.392,9.562,9.562,0,0,1-5.687-5.791,10.262,10.262,0,0,1,5.714-12.524,10.559,10.559,0,0,1,4.342-.914c1.05.018,1.611.184,1.6.252.023.231-2.377-.163-5.585,1.418a9.76,9.76,0,0,0-4.308,4.206,9.366,9.366,0,0,0-.644,7.184,8.661,8.661,0,0,0,4.95,5.152,7.6,7.6,0,0,0,5.882-.129C231.137,234.179,231.9,231.722,232.082,231.879Z" transform="translate(-215.423 -217.567)" fill="#455a64"/>
                </g>
              </g>
            </g>
          </g>
          <g id="Group_195" data-name="Group 195" transform="translate(0 217.487)">
            <g id="Group_187" data-name="Group 187" transform="translate(248.907)">
              <g id="Group_184" data-name="Group 184" transform="translate(0.488 0.588)">
                <path id="Path_71" data-name="Path 71" d="M233.834,342.757s12.658-17.88,20.608-27.922c9.634-12.17,15.377-22.659,15.377-28.344v-30.12s12-2.842,13.71,10.8,0,17.049,0,17.049,50.37-33.922,53.784-31.46c6,4.324-5.378,13.381-5.378,13.381l-30.7,27.74,17.48-5.533a8.2,8.2,0,0,1,10.233,5.145h0a8.123,8.123,0,0,1-3.121,9.33l-10.346,8.965,5.206-2.092a8,8,0,0,1,10.124,3.8h0a7.909,7.909,0,0,1-1.3,8.981l-9.425,10.049,4.417-2.35a5.743,5.743,0,0,1,7.83,2.484h0a5.68,5.68,0,0,1-1.563,7l-56.381,44.581Z" transform="translate(-233.834 -252.631)" fill="#ffbe9d"/>
              </g>
              <g id="Group_186" data-name="Group 186">
                <g id="Group_185" data-name="Group 185">
                  <path id="Path_72" data-name="Path 72" d="M274.663,384.575s-.238-.206-.7-.662L271.9,381.86l-8.01-8.062c-7.037-7.132-17.242-17.473-30.047-30.449l-.22-.222.181-.259c3.688-5.22,7.7-10.82,12.05-16.736,2.175-2.958,4.437-5.993,6.812-9.078,2.4-3.076,4.857-6.193,7.179-9.554a92.359,92.359,0,0,0,6.519-10.664c1.874-3.811,3.657-7.835,3.219-12.315-.011-8.94-.02-18.231-.032-27.82v-.454l.42-.079a12.71,12.71,0,0,1,9.108,1.5,11.349,11.349,0,0,1,3.3,3.477,16.2,16.2,0,0,1,1.651,4.489,71.526,71.526,0,0,1,1.023,9.414c.082,1.588.111,3.189.041,4.8a16.613,16.613,0,0,1-.778,4.952l-.832-.735c7.776-5.215,15.838-10.494,24.168-15.759,4.167-2.629,8.4-5.254,12.726-7.817a130.574,130.574,0,0,1,13.445-7.2,17.115,17.115,0,0,1,1.942-.7,5.638,5.638,0,0,1,1.1-.211,2.321,2.321,0,0,1,.687.048,1.419,1.419,0,0,1,.619.395,4.279,4.279,0,0,1,1.708,3.986c-.431,2.947-2.291,5.093-4.042,7.062-1.826,1.969-3.917,3.582-5.791,5.349l-5.75,5.192q-11.443,10.334-22.4,20.225l-.556-.971,10.235-3.235q2.531-.8,5.04-1.59c.846-.261,1.645-.535,2.522-.78a8.256,8.256,0,0,1,2.754-.306,8.68,8.68,0,0,1,4.516,15.842l.048-.036L316.1,312.51l-.538-.88q2.555-1.024,5.068-2.028a8.693,8.693,0,0,1,5.583-.361,8.419,8.419,0,0,1,4.487,13.229c-1.139,1.357-2.28,2.463-3.4,3.688l-6.6,7.012-.549-.719,4.739-2.493a6.133,6.133,0,0,1,7.454,9.314,10,10,0,0,1-1.86,1.692l-1.88,1.481q-1.868,1.466-3.682,2.894l-7.03,5.521L294.58,369.118c-6.37,4.97-11.344,8.849-14.765,11.519q-2.491,1.923-3.845,2.969c-.864.662-1.307.969-1.307.969s.447-.4,1.313-1.1l3.838-3.1c3.4-2.724,8.339-6.685,14.668-11.755l23.049-18.394,6.946-5.528,3.639-2.895q.922-.731,1.86-1.479a9.183,9.183,0,0,0,1.706-1.554,5.276,5.276,0,0,0-6.422-7.989l-4.684,2.488-2.425,1.288,1.874-2.008,6.576-7.037c1.089-1.193,2.318-2.414,3.326-3.62a7.429,7.429,0,0,0-3.986-11.664,7.645,7.645,0,0,0-4.927.338q-2.511,1.011-5.063,2.042l-2.9,1.168,2.359-2.048q5.066-4.4,10.335-8.976l.025-.023.025-.016a7.584,7.584,0,0,0-3.961-13.84c-1.617-.147-3.178.533-4.886,1.044l-5.038,1.6-10.231,3.246-2.511.8,1.955-1.767q10.936-9.895,22.4-20.261l5.75-5.2c1.9-1.792,3.956-3.38,5.694-5.258,1.694-1.865,3.412-4.015,3.729-6.372a3.075,3.075,0,0,0-1.279-2.958c-.136-.338-.728-.147-1.338-.009a16.475,16.475,0,0,0-1.806.653,130.779,130.779,0,0,0-13.3,7.13c-4.312,2.554-8.538,5.172-12.7,7.794-8.318,5.251-16.385,10.523-24.154,15.72l-1.44.964.608-1.7a16.757,16.757,0,0,0,.662-4.487c.068-1.565.043-3.137-.036-4.7a71.145,71.145,0,0,0-.984-9.232,15.006,15.006,0,0,0-1.515-4.158,10.251,10.251,0,0,0-2.944-3.115,11.647,11.647,0,0,0-8.252-1.368l.42-.531c-.011,9.589-.023,18.88-.032,27.82-.014,1.127.034,2.2-.068,3.387a18.073,18.073,0,0,1-.737,3.314,40.134,40.134,0,0,1-2.559,6.063,93.278,93.278,0,0,1-6.624,10.757c-2.345,3.371-4.848,6.522-7.243,9.566-2.38,3.067-4.65,6.091-6.839,9.033-4.369,5.889-8.409,11.469-12.122,16.664l-.039-.481c12.619,13.034,22.675,23.419,29.612,30.583,3.434,3.57,6.1,6.338,7.933,8.246.88.928,1.556,1.64,2.048,2.157C274.43,384.3,274.663,384.575,274.663,384.575Z" transform="translate(-233.619 -252.371)" fill="#eb996e"/>
                </g>
              </g>
            </g>
            <g id="Group_188" data-name="Group 188" transform="translate(0 82.356)">
              <path id="Path_73" data-name="Path 73" d="M413.843,338.525,259.283,542.584c-23.46,30.973-65.743,42.306-100.871,25.492-25.678-12.292-44.513-38.1-28.752-91.237l148.059-101.3,89.994-86.857Z" transform="translate(-123.891 -288.677)" fill="#009de0"/>
            </g>
            <g id="Group_190" data-name="Group 190" transform="translate(21.734 81.564)">
              <g id="Group_189" data-name="Group 189">
                <path id="Path_74" data-name="Path 74" d="M146.259,568.518s.576.27,1.67.846q1.677.891,4.834,2.563a66.023,66.023,0,0,0,20.2,5.415,68.363,68.363,0,0,0,15.139-.275,78.524,78.524,0,0,0,8.538-1.506c1.468-.334,2.929-.812,4.435-1.225a41.753,41.753,0,0,0,4.532-1.488,88.884,88.884,0,0,0,18.576-9.123A73.184,73.184,0,0,0,241.611,548.5c10.55-12.481,21.452-26.729,33.234-41.934,11.757-15.232,24.172-31.624,37.236-48.868,26.08-34.532,54.594-72.618,84.387-112.694l4.748-6.39.041.751-46.121-49.855.792.054c-31.508,26.005-60.668,50.835-87.1,72.947-26.409,22.142-50.091,41.577-70.1,57.42s-36.281,28.185-47.611,36.465c-5.632,4.187-10.085,7.282-13.059,9.43l-3.4,2.4c-.769.535-1.175.789-1.175.789s.365-.311,1.114-.876c.778-.578,1.887-1.406,3.339-2.488,2.933-2.2,7.35-5.347,12.941-9.584,11.254-8.379,27.45-20.8,47.387-36.725s43.562-35.412,69.923-57.606c26.388-22.162,55.517-47.031,87.016-73.067l.42-.347.372.4,46.139,49.839.333.358-.293.395q-2.365,3.185-4.748,6.392c-29.8,40.078-58.336,78.146-84.466,112.644-13.091,17.231-25.535,33.6-37.329,48.811-11.825,15.187-22.754,29.4-33.38,41.882a73.888,73.888,0,0,1-17.648,15.309,89.4,89.4,0,0,1-18.762,9.114,42.288,42.288,0,0,1-4.573,1.474c-1.52.408-2.994.882-4.473,1.211a78.332,78.332,0,0,1-8.613,1.468,68.272,68.272,0,0,1-15.25.175,64.824,64.824,0,0,1-20.261-5.66c-2.128-1.134-3.716-2.069-4.793-2.672S146.259,568.518,146.259,568.518Z" transform="translate(-133.472 -288.328)" fill="#263238"/>
              </g>
            </g>
            <g id="Group_192" data-name="Group 192" transform="translate(2.118 299.351)">
              <g id="Group_191" data-name="Group 191">
                <path id="Path_75" data-name="Path 75" d="M274.415,393.583a42.274,42.274,0,0,0-5.4-3.1c-3.623-1.681-9.482-2.847-16.618-2.1a58.968,58.968,0,0,0-11.458,2.391c-4.035,1.223-8.232,2.944-12.674,4.7a129.766,129.766,0,0,1-14.2,4.963,44.826,44.826,0,0,1-16.131,1.572,55.993,55.993,0,0,1-15.616-4.328c-4.829-2-9.307-4.278-13.642-6.247-8.6-4-16.959-6.6-24.129-6.2a26.012,26.012,0,0,0-15.6,5.666,25.261,25.261,0,0,0-4.122,4.643,8.258,8.258,0,0,1,.764-1.44,18.1,18.1,0,0,1,3.056-3.55A25.918,25.918,0,0,1,144.5,384.4c7.379-.526,15.949,2.064,24.621,6.038,4.376,1.953,8.856,4.2,13.638,6.168a55.34,55.34,0,0,0,15.294,4.224,43.963,43.963,0,0,0,15.713-1.515,133.144,133.144,0,0,0,14.1-4.857c4.451-1.724,8.674-3.421,12.787-4.621a58.419,58.419,0,0,1,11.664-2.284c7.27-.66,13.254.665,16.886,2.509A18.306,18.306,0,0,1,274.415,393.583Z" transform="translate(-124.825 -384.337)" fill="#fafafa"/>
              </g>
            </g>
            <g id="Group_194" data-name="Group 194" transform="translate(122.936 184.732)">
              <g id="Group_193" data-name="Group 193">
                <path id="Path_76" data-name="Path 76" d="M261.48,389.249a8.27,8.27,0,0,0,.59-4.045,11.408,11.408,0,0,0-6.821-8.3,38.371,38.371,0,0,0-7.508-2.289,39.823,39.823,0,0,1-8.776-2.815c-5.957-2.767-11.446-7.549-16.537-12.957-5.1-5.428-9.645-10.843-14.491-15a37.943,37.943,0,0,0-14.534-8.3,24.965,24.965,0,0,0-11.242-.767c-2.652.479-4.031,1.13-4.074,1.014a3.818,3.818,0,0,1,.978-.5,15.347,15.347,0,0,1,3.006-.962,24.21,24.21,0,0,1,11.555.413,37.911,37.911,0,0,1,15.019,8.28c4.972,4.194,9.577,9.634,14.64,15.019,5.052,5.367,10.405,10.056,16.144,12.785,5.673,2.813,11.707,3.028,16.178,5.335a11.744,11.744,0,0,1,6.919,9,6.392,6.392,0,0,1-.476,3.149A2.94,2.94,0,0,1,261.48,389.249Z" transform="translate(-178.086 -333.808)" fill="#fafafa"/>
              </g>
            </g>
          </g>
        </g>
      </g>
      <g id="Speech_Bubbles" data-name="Speech Bubbles" transform="translate(59.817 5501.736)">
        <g id="Group_210" data-name="Group 210" transform="translate(542.398 66.024)">
          <g id="Group_202" data-name="Group 202" transform="translate(-453.383 38.811)">
            <g id="Group_201" data-name="Group 201" transform="translate(3 -6)">
              <g id="Group_198" data-name="Group 198">
                <g id="Group_197" data-name="Group 197">
                  <path id="Path_77" data-name="Path 77" d="M439.369,145.872l-6.758.449L419.233,167.85l.9,13.488s-10.4,1.336-10.346-16.407-.975-13.157-.975-13.157-22.183,1.388-24.152-.415c-1.434-1.311-3.5-23.3-4.53-35.231-.515-6.007,2.8-11.846,8.3-13.638a9.661,9.661,0,0,1,2.366-.481c5.53-.367,34.089,2.253,34.089,2.253l11.673-.776Z" transform="translate(-380.073 -101.974)" fill="#455a64"/>
                </g>
              </g>
              <g id="Group_200" data-name="Group 200" transform="translate(60.087 0.376)">
                <g id="Group_199" data-name="Group 199">
                  <path id="Path_78" data-name="Path 78" d="M425.361,148.079l-7.227-45.939-11.572.769,3.009,45.284Z" transform="translate(-406.562 -102.14)" fill="#455a64"/>
                </g>
              </g>
            </g>
          </g>
          <g id="Group_209" data-name="Group 209">
            <g id="Group_204" data-name="Group 204" transform="translate(39.624 172.361)">
              <g id="Group_203" data-name="Group 203">
                <path id="Path_79" data-name="Path 79" d="M348.205,140.009a3.155,3.155,0,0,1,.971.234,6.224,6.224,0,0,1,1.132.438,9.777,9.777,0,0,1,1.472.769,17,17,0,0,1,7.951,15.28,14.77,14.77,0,0,1-3,7.908,17.259,17.259,0,0,1-7.431,5.648,15.261,15.261,0,0,1-18.313-4.836,17.229,17.229,0,0,1-3.673-8.584,14.742,14.742,0,0,1,1.3-8.355,17,17,0,0,1,14.459-9.362,9.807,9.807,0,0,1,1.661.059,6.134,6.134,0,0,1,1.2.179,3.117,3.117,0,0,1,.959.277c-.02.129-1.368-.229-3.795-.054a16.76,16.76,0,0,0-9.314,3.845,15.905,15.905,0,0,0-4.285,5.474,13.867,13.867,0,0,0-1.107,7.792c.728,5.517,4.886,11.455,11.213,13.191,6.358,1.613,12.9-1.495,16.26-5.934a13.85,13.85,0,0,0,2.885-7.32,15.89,15.89,0,0,0-1.021-6.876,16.755,16.755,0,0,0-6.2-7.944C349.507,140.486,348.158,140.132,348.205,140.009Z" transform="translate(-327.175 -139.136)" fill="#263238"/>
              </g>
            </g>
            <g id="Group_206" data-name="Group 206" transform="translate(0 213.01)">
              <g id="Group_205" data-name="Group 205">
                <path id="Path_80" data-name="Path 80" d="M323.145,157.682a5.009,5.009,0,0,1,2.3.835,10.754,10.754,0,0,1,5.138,9.706,9.439,9.439,0,0,1-1.905,5.086,10.384,10.384,0,0,1-18.88-4.988,9.448,9.448,0,0,1,.855-5.365,10.758,10.758,0,0,1,9.262-5.9,4.981,4.981,0,0,1,2.409.408c-.02.111-.873-.084-2.386.052a10.577,10.577,0,0,0-5.771,2.457,8.932,8.932,0,0,0-3.291,8.2,9.348,9.348,0,0,0,16.936,4.476A8.935,8.935,0,0,0,329,163.891a10.6,10.6,0,0,0-3.8-4.986C323.945,158.041,323.106,157.789,323.145,157.682Z" transform="translate(-309.707 -157.056)" fill="#263238"/>
              </g>
            </g>
            <g id="Group_208" data-name="Group 208" transform="translate(81.203)">
              <g id="Group_207" data-name="Group 207">
                <path id="Path_81" data-name="Path 81" d="M346.487,167.085s.07-.644.265-1.89q.313-1.922.9-5.537.306-1.827.678-4.079c.32-1.486.817-3.078,1.277-4.82q.714-2.613,1.54-5.617a20.127,20.127,0,0,1,1.023-3.046q.6-1.548,1.232-3.187c3.1-8.844,8.577-19.091,16.611-29.7a117.327,117.327,0,0,1,33.736-29.764l5.521-3.18c1.921-.957,3.924-1.806,5.918-2.729,2.021-.853,3.974-1.951,6.116-2.631q3.188-1.085,6.44-2.2c1.087-.363,2.171-.758,3.273-1.1l3.4-.8q3.413-.8,6.891-1.622c2.334-.474,4.739-.674,7.136-1.028a60.294,60.294,0,0,1,7.3-.76c4.936-.111,9.961-.522,15.049.054,2.541.215,5.122.274,7.688.624l7.722,1.329c1.291.247,2.609.4,3.893.726l3.843,1.071c2.561.746,5.183,1.372,7.744,2.232,5.015,2.03,10.258,3.732,15.108,6.476l3.725,1.9c.619.322,1.252.622,1.862.966l1.774,1.134q3.552,2.276,7.145,4.575c2.318,1.645,4.51,3.5,6.787,5.249,1.109.914,2.314,1.726,3.353,2.733l3.146,3.006c4.378,3.854,8.062,8.454,11.954,12.932l5.177,7.3,1.3,1.835,1.134,1.949,2.255,3.924,2.262,3.942,1.9,4.151,1.89,4.176.948,2.094c.274.717.5,1.452.755,2.175q1.487,4.369,2.983,8.77,1.062,4.525,2.132,9.087a126.189,126.189,0,0,1,1.556,37.8,126.2,126.2,0,0,1-10.575,36.335q-2.133,4.172-4.251,8.311l-5,7.8-1.254,1.933-1.422,1.808-2.838,3.6-2.84,3.577-3.144,3.285-3.128,3.269-1.57,1.62-1.7,1.47q-3.4,2.936-6.778,5.843c-4.854,3.414-9.534,7-14.711,9.688l-3.775,2.164c-1.252.728-2.615,1.227-3.911,1.849-2.636,1.155-5.206,2.427-7.851,3.466l-8.037,2.729-1.994.676c-.676.188-1.363.327-2.042.492q-2.042.473-4.072.948c-5.367,1.5-10.866,1.894-16.221,2.661-2.695.22-5.39.2-8.055.309l-3.99.116c-1.322.011-2.638-.159-3.952-.229l-7.817-.563c-2.572-.279-5.093-.839-7.613-1.241-5.077-.66-9.858-2.266-14.622-3.559a60.449,60.449,0,0,1-6.9-2.491c-2.243-.919-4.53-1.69-6.68-2.711l-6.3-3.228q-1.562-.8-3.105-1.59l-2.915-1.856q-2.892-1.858-5.723-3.682c-1.917-1.175-3.548-2.706-5.308-4.022-1.713-1.375-3.455-2.679-5.088-4.07q-2.324-2.232-4.6-4.412a117.361,117.361,0,0,1-25.6-36.993c-5.251-12.227-8.114-23.487-8.994-32.815q-.225-1.746-.431-3.389a20.056,20.056,0,0,1-.261-3.2q-.082-3.113-.15-5.821c-.027-1.8-.127-3.468-.082-4.986q.177-2.273.322-4.122.3-3.651.454-5.589c.109-1.257.2-1.9.2-1.9s0,.649-.075,1.91q-.116,1.936-.338,5.589-.116,1.844-.263,4.115c-.027,1.515.093,3.176.138,4.972q.1,2.7.2,5.8a20.2,20.2,0,0,0,.288,3.187q.221,1.64.456,3.373c.946,9.285,3.863,20.475,9.142,32.606A117.05,117.05,0,0,0,381.62,265.3q2.263,2.157,4.578,4.367c1.624,1.377,3.359,2.665,5.063,4.026,1.749,1.3,3.373,2.815,5.276,3.977l5.691,3.636,2.895,1.835q1.538.779,3.087,1.57,3.1,1.575,6.259,3.185c2.135,1.009,4.407,1.767,6.633,2.674a59.894,59.894,0,0,0,6.851,2.454c4.73,1.27,9.47,2.856,14.509,3.5,2.5.392,5,.946,7.549,1.218l7.749.54c1.3.068,2.606.236,3.917.222l3.954-.122c2.643-.113,5.313-.1,7.983-.318,5.308-.769,10.754-1.164,16.069-2.659l4.033-.946c.671-.166,1.354-.3,2.021-.49l1.973-.674q3.957-1.347,7.96-2.711c2.618-1.032,5.163-2.3,7.772-3.443,1.284-.617,2.634-1.111,3.872-1.833l3.738-2.148c5.124-2.67,9.754-6.227,14.561-9.609q3.338-2.882,6.708-5.794l1.688-1.456,1.552-1.606,3.1-3.239,3.112-3.253,2.806-3.543,2.808-3.568,1.409-1.79,1.241-1.915q2.467-3.845,4.95-7.722,2.1-4.1,4.206-8.232a125.186,125.186,0,0,0,10.464-35.972,125.117,125.117,0,0,0-1.534-37.422q-1.058-4.515-2.107-9-1.484-4.359-2.951-8.683c-.25-.719-.476-1.447-.746-2.155l-.939-2.076-1.869-4.135-1.876-4.113-2.239-3.9-2.228-3.888-1.121-1.93-1.289-1.817-5.12-7.232c-3.854-4.437-7.5-9-11.83-12.819l-3.112-2.981c-1.03-1-2.221-1.8-3.319-2.711-2.257-1.738-4.423-3.575-6.717-5.206q-3.559-2.283-7.075-4.541l-1.753-1.127c-.6-.343-1.232-.64-1.844-.96L516.3,76.882c-4.8-2.729-9.992-4.419-14.958-6.44-2.538-.855-5.136-1.479-7.674-2.223q-1.909-.534-3.806-1.068c-1.27-.327-2.577-.479-3.856-.724q-3.855-.674-7.654-1.334c-2.543-.349-5.1-.413-7.62-.631-5.045-.585-10.029-.184-14.924-.086a59.733,59.733,0,0,0-7.236.737c-2.382.347-4.768.538-7.082,1l-6.841,1.592q-1.695.391-3.371.783c-1.1.338-2.173.726-3.253,1.084l-6.395,2.164c-2.13.669-4.07,1.753-6.079,2.6-1.98.91-3.972,1.747-5.882,2.69q-2.777,1.589-5.492,3.139a117.041,117.041,0,0,0-33.636,29.451c-8.037,10.509-13.556,20.674-16.7,29.46q-.643,1.63-1.252,3.164a20.049,20.049,0,0,0-1.043,3.028q-.851,2.984-1.59,5.583c-.474,1.733-.989,3.316-1.327,4.793q-.4,2.239-.733,4.06-.66,3.6-1.014,5.508C346.637,166.452,346.487,167.085,346.487,167.085Z" transform="translate(-345.505 -63.153)" fill="#263238"/>
              </g>
            </g>
          </g>
        </g>
        <g id="Group_224" data-name="Group 224" transform="translate(0 0)">
          <g id="Group_212" data-name="Group 212" transform="translate(254.85 208.384)">
            <g id="Group_211" data-name="Group 211">
              <path id="Path_82" data-name="Path 82" d="M196.424,126.3c.029.127-1.352.318-3.525,1.413a16.765,16.765,0,0,0-7.116,7.136,15.9,15.9,0,0,0-1.844,6.7,13.872,13.872,0,0,0,1.98,7.617c2.795,4.811,8.917,8.688,15.423,7.853,6.49-.955,11.335-6.347,12.726-11.737a13.863,13.863,0,0,0-.159-7.869,15.9,15.9,0,0,0-3.589-5.952,16.793,16.793,0,0,0-8.781-4.943c-2.391-.465-3.772-.274-3.777-.4a3.126,3.126,0,0,1,.987-.159,6.2,6.2,0,0,1,1.214-.032,9.72,9.72,0,0,1,1.656.143,17,17,0,0,1,13.22,11.038,14.748,14.748,0,0,1,.281,8.452,17.227,17.227,0,0,1-4.684,8.076,15.26,15.26,0,0,1-18.762,2.588,17.248,17.248,0,0,1-6.7-6.506,14.767,14.767,0,0,1-2.017-8.212A17,17,0,0,1,192.7,127.3a9.8,9.8,0,0,1,1.554-.585,6.368,6.368,0,0,1,1.177-.3A3.22,3.22,0,0,1,196.424,126.3Z" transform="translate(-182.945 -125.91)" fill="#263238"/>
            </g>
          </g>
          <g id="Group_214" data-name="Group 214" transform="translate(302.73 245.097)">
            <g id="Group_213" data-name="Group 213">
              <path id="Path_83" data-name="Path 83" d="M212.722,142.392c.025.111-.837.259-2.182.966a10.614,10.614,0,0,0-4.38,4.489,8.94,8.94,0,0,0,.122,8.84,9.347,9.347,0,0,0,17.353-2.393,8.943,8.943,0,0,0-2.275-8.543,10.607,10.607,0,0,0-5.433-3.137c-1.486-.315-2.355-.227-2.361-.338a4.992,4.992,0,0,1,2.441-.113,10.753,10.753,0,0,1,8.482,6.975,9.441,9.441,0,0,1,.2,5.428,10.384,10.384,0,0,1-19.345,2.67,9.455,9.455,0,0,1-1.277-5.279,10.755,10.755,0,0,1,6.274-9.015A4.993,4.993,0,0,1,212.722,142.392Z" transform="translate(-204.052 -142.095)" fill="#263238"/>
            </g>
          </g>
          <g id="Group_223" data-name="Group 223">
            <g id="Group_220" data-name="Group 220" transform="translate(708.193 141.974)">
              <g id="Group_219" data-name="Group 219">
                <g id="Group_216" data-name="Group 216">
                  <g id="Group_215" data-name="Group 215">
                    <path id="Path_84" data-name="Path 84" d="M168.65,107.973h-7.325L145.337,85.691V71.069s-11.324-.7-9.992,18.451-.109,14.273-.109,14.273-24.043.093-26.041,2.182c-1.452,1.518-2.11,25.4-2.361,38.354-.125,6.519,3.874,12.583,9.938,14.125a10.507,10.507,0,0,0,2.588.347c6,0,36.637-4.875,36.637-4.875H168.65Z" transform="translate(-106.831 -71.066)" fill="#009de0"/>
                  </g>
                </g>
                <g id="Group_218" data-name="Group 218" transform="translate(65.74 32.892)">
                  <g id="Group_217" data-name="Group 217">
                    <path id="Path_85" data-name="Path 85" d="M152.863,85.566l-4.506,50.106H135.811v-49.1Z" transform="translate(-135.811 -85.566)" fill="#009de0"/>
                  </g>
                </g>
              </g>
            </g>
            <g id="Group_222" data-name="Group 222">
              <g id="Group_221" data-name="Group 221">
                <path id="Path_86" data-name="Path 86" d="M325.928,161.888s-.075-.7-.163-2.062q-.126-2.089-.365-6.048-.112-2-.252-4.455c-.168-1.631-.513-3.4-.8-5.322q-.453-2.885-.975-6.2a21.817,21.817,0,0,0-.724-3.389q-.452-1.729-.93-3.564c-2.23-9.847-6.823-21.489-14.082-33.831a126.653,126.653,0,0,0-32.27-36.036l-5.487-4.092c-1.928-1.266-3.958-2.423-5.966-3.661l-3.044-1.844a24.779,24.779,0,0,0-3.146-1.738q-3.26-1.565-6.587-3.162c-1.112-.526-2.216-1.084-3.35-1.59q-1.752-.64-3.521-1.284L237.129,41c-2.427-.8-4.965-1.32-7.477-2.005l-3.8-.973c-.637-.154-1.27-.345-1.917-.47l-1.962-.3c-5.245-.746-10.546-1.828-16.04-1.86-2.736-.1-5.492-.365-8.268-.322q-4.168.214-8.4.431c-1.406.1-2.831.088-4.237.274q-2.11.323-4.231.649c-2.824.467-5.694.8-8.534,1.384-5.6,1.522-11.4,2.659-16.913,4.961q-2.1.766-4.206,1.54c-.7.265-1.415.5-2.107.792l-2.033.98q-4.073,1.967-8.193,3.954c-2.679,1.45-5.247,3.142-7.9,4.714-1.3.83-2.684,1.54-3.92,2.477l-3.734,2.795c-5.154,3.536-9.663,7.962-14.384,12.222q-3.209,3.535-6.447,7.1l-1.622,1.783c-.5.628-.969,1.286-1.456,1.928l-2.9,3.884-2.915,3.9-2.554,4.172-2.55,4.2-1.279,2.107c-.383.726-.721,1.477-1.084,2.216q-2.144,4.454-4.305,8.942-1.715,4.679-3.441,9.391a135.428,135.428,0,0,0-6.544,40,135.539,135.539,0,0,0,6.535,40.015q1.729,4.713,3.441,9.393,2.161,4.488,4.308,8.944l1.082,2.218,1.279,2.107,2.55,4.2,2.554,4.174,2.917,3.9,2.9,3.886,1.456,1.928,1.622,1.785,6.449,7.1c4.721,4.265,9.23,8.688,14.386,12.227l3.734,2.8c1.236.937,2.622,1.645,3.92,2.477,2.652,1.572,5.222,3.262,7.9,4.716l8.193,3.952,2.035.982c.692.29,1.406.526,2.107.789L155.356,281c5.517,2.3,11.317,3.439,16.915,4.961,2.84.585,5.712.916,8.536,1.384l4.228.649c1.409.186,2.833.177,4.24.275q4.229.214,8.4.431c2.779.041,5.535-.227,8.271-.322,5.494-.032,10.8-1.116,16.042-1.86l1.96-.3c.646-.127,1.279-.318,1.917-.472l3.8-.973c2.511-.685,5.05-1.2,7.474-2.005q3.6-1.317,7.141-2.6l3.521-1.284q1.681-.8,3.35-1.59l6.587-3.164a24.872,24.872,0,0,0,3.144-1.738q1.531-.929,3.044-1.844c2.008-1.239,4.04-2.4,5.966-3.663l5.487-4.09a126.645,126.645,0,0,0,32.268-36.038c.926-1.536,1.874-3.024,2.736-4.521q1.13-2.338,2.221-4.587l2.139-4.41c.338-.726.721-1.425,1.012-2.153q.408-1.1.805-2.184,1.6-4.321,3.056-8.268c.9-2.654,1.431-5.276,2.11-7.706q.48-1.834.93-3.564a22.07,22.07,0,0,0,.726-3.387q.521-3.318.973-6.2c.284-1.924.628-3.691.8-5.322q.14-2.457.252-4.455.238-3.954.365-6.048c.088-1.363.163-2.062.163-2.062s.007.7-.043,2.064q-.085,2.1-.247,6.061l-.2,4.466c-.15,1.638-.476,3.412-.742,5.344q-.429,2.9-.923,6.229a21.879,21.879,0,0,1-.7,3.4q-.442,1.739-.907,3.582c-.665,2.443-1.186,5.081-2.069,7.751q-1.439,3.967-3.019,8.32-.395,1.089-.8,2.2c-.288.733-.669,1.436-1,2.166q-1.041,2.178-2.128,4.442l-2.212,4.618c-.857,1.511-1.8,3.01-2.727,4.557a126.871,126.871,0,0,1-32.329,36.362q-2.722,2.045-5.512,4.135c-1.935,1.279-3.976,2.452-6,3.7q-1.521.926-3.06,1.865a25.392,25.392,0,0,1-3.162,1.758l-6.626,3.2c-1.121.533-2.232,1.1-3.373,1.611q-1.763.646-3.541,1.3l-7.189,2.638c-2.441.817-5,1.343-7.527,2.037l-3.829.989c-.642.157-1.279.349-1.93.479l-1.976.3c-5.283.764-10.627,1.862-16.165,1.908-2.756.1-5.535.374-8.334.338q-4.2-.211-8.463-.422c-1.42-.1-2.854-.084-4.274-.268l-4.267-.649c-2.847-.465-5.744-.8-8.609-1.384-5.648-1.524-11.5-2.665-17.065-4.979l-4.246-1.552c-.708-.265-1.427-.5-2.126-.794l-2.053-.987-8.271-3.979c-2.7-1.463-5.3-3.164-7.973-4.748-1.311-.837-2.711-1.552-3.958-2.5l-3.77-2.817c-5.2-3.566-9.759-8.026-14.525-12.324q-3.239-3.562-6.513-7.159l-1.635-1.8-1.472-1.944-2.933-3.92-2.944-3.936-2.579-4.21-2.575-4.237L86.12,223l-1.093-2.239q-2.167-4.495-4.351-9.026-1.732-4.723-3.475-9.48a136.511,136.511,0,0,1-6.6-40.384A136.49,136.49,0,0,1,77.209,121.5q1.742-4.757,3.475-9.475,2.184-4.529,4.351-9.024c.365-.746.708-1.5,1.1-2.237l1.291-2.125L90,94.4l2.579-4.208,2.944-3.936,2.933-3.918c.492-.646.964-1.311,1.472-1.944l1.636-1.8q3.27-3.6,6.51-7.157c4.766-4.3,9.321-8.756,14.522-12.322l3.77-2.815c1.25-.944,2.647-1.658,3.956-2.5,2.677-1.583,5.27-3.285,7.973-4.748l8.268-3.977,2.053-.987c.7-.293,1.42-.529,2.126-.8q2.13-.776,4.246-1.552c5.564-2.312,11.415-3.453,17.063-4.977,2.865-.588,5.759-.919,8.609-1.384q2.14-.323,4.265-.646c1.42-.186,2.854-.175,4.274-.27q4.263-.214,8.461-.422c2.8-.036,5.578.236,8.336.338,5.535.045,10.877,1.143,16.162,1.905l1.974.3c.653.127,1.288.322,1.933.479l3.827.989c2.529.692,5.086,1.22,7.527,2.035l7.189,2.64q1.78.653,3.543,1.3c1.141.51,2.253,1.075,3.371,1.608q3.348,1.616,6.626,3.2a24.945,24.945,0,0,1,3.162,1.758l3.062,1.865c2.017,1.252,4.058,2.425,6,3.7q2.787,2.093,5.512,4.135A126.96,126.96,0,0,1,308.21,96.676c7.241,12.44,11.789,24.156,13.957,34.058q.47,1.841.907,3.582a21.9,21.9,0,0,1,.7,3.4q.493,3.331.923,6.231c.265,1.933.592,3.707.742,5.344q.109,2.464.2,4.469.163,3.964.247,6.061C325.935,161.189,325.928,161.888,325.928,161.888Z" transform="translate(-70.597 -34.047)" fill="#263238"/>
              </g>
            </g>
          </g>
        </g>
      </g>
      <g id="Question_Marks" data-name="Question Marks" transform="translate(123.441 5590.155)">
        <g id="Group_227" data-name="Group 227" transform="translate(372.776 0)">
          <g id="Group_225" data-name="Group 225">
            <path id="Path_87" data-name="Path 87" d="M285.57,156.695h-.089a3.406,3.406,0,0,1-3.316-3.489l.771-30.285a3.4,3.4,0,0,1,4.41-3.162,21.59,21.59,0,0,0,17.013-2.128,19.7,19.7,0,0,0,9.634-12.308,20.1,20.1,0,0,0-3.126-15.4,21.854,21.854,0,0,0-14.035-9.763c-11.145-2.073-23.355,5.36-27.237,16.555a3.4,3.4,0,0,1-6.429-2.23c4.938-14.241,20.6-23.668,34.906-21.017a28.687,28.687,0,0,1,18.492,12.735,26.929,26.929,0,0,1,4.051,20.667,26.514,26.514,0,0,1-12.875,16.664,28.949,28.949,0,0,1-18.106,3.668l-.667,26.175A3.4,3.4,0,0,1,285.57,156.695Z" transform="translate(-262.979 -73.025)" fill="#263238"/>
          </g>
          <g id="Group_226" data-name="Group 226" transform="translate(17.911 93.655)">
            <path id="Path_88" data-name="Path 88" d="M280.827,119.289a4.976,4.976,0,1,1-4.975-4.977A4.975,4.975,0,0,1,280.827,119.289Z" transform="translate(-270.875 -114.312)" fill="#263238"/>
          </g>
        </g>
        <g id="Group_230" data-name="Group 230" transform="translate(0 360.513)">
          <g id="Group_228" data-name="Group 228" transform="translate(0 13.139)">
            <path id="Path_89" data-name="Path 89" d="M121.69,296.9A23.609,23.609,0,0,1,107.5,292.39a22.808,22.808,0,0,1-8.688-15.6,21.455,21.455,0,0,1,4.43-16.181,21.141,21.141,0,0,1,15.094-7.354,22.971,22.971,0,0,1,13.44,3.3l8.969-17a3.4,3.4,0,0,1,6.02,3.176L135.92,263.291a3.4,3.4,0,0,1-5.356.876,15.737,15.737,0,0,0-11.823-4.115,14.319,14.319,0,0,0-10.251,4.9,14.641,14.641,0,0,0-2.922,11.045,15.991,15.991,0,0,0,6.014,10.954c6.535,4.9,17.219,3.967,23.328-2.035a3.4,3.4,0,1,1,4.768,4.852A25.793,25.793,0,0,1,121.69,296.9Z" transform="translate(-98.645 -237.746)" fill="#263238"/>
          </g>
          <g id="Group_229" data-name="Group 229" transform="translate(47.341)">
            <path id="Path_90" data-name="Path 90" d="M119.913,234.078a3.816,3.816,0,1,1,1.724,5.115A3.816,3.816,0,0,1,119.913,234.078Z" transform="translate(-119.515 -231.953)" fill="#263238"/>
          </g>
        </g>
        <g id="Group_233" data-name="Group 233" transform="translate(666.805 314.661)">
          <g id="Group_231" data-name="Group 231">
            <path id="Path_91" data-name="Path 91" d="M435.559,272.628a3.4,3.4,0,0,1-2.761-1.409l-13.617-18.832a3.4,3.4,0,0,1,1.588-5.19,15.754,15.754,0,0,0,8.931-8.772,14.317,14.317,0,0,0,.159-11.36,14.645,14.645,0,0,0-8.609-7.515,15.994,15.994,0,0,0-12.481.533c-7.293,3.688-11.192,13.678-8.52,21.815a3.4,3.4,0,0,1-6.463,2.125c-3.729-11.344,1.617-24.807,11.914-30.013a22.807,22.807,0,0,1,17.825-.873,21.443,21.443,0,0,1,12.544,11.147,21.126,21.126,0,0,1-.1,16.788,23.019,23.019,0,0,1-8.915,10.584l11.263,15.575a3.4,3.4,0,0,1-2.756,5.4Z" transform="translate(-392.598 -211.74)" fill="#263238"/>
          </g>
          <g id="Group_232" data-name="Group 232" transform="translate(47.863 64.732)">
            <path id="Path_92" data-name="Path 92" d="M420.551,241.78a3.817,3.817,0,1,1-5.349-.721A3.815,3.815,0,0,1,420.551,241.78Z" transform="translate(-413.698 -240.276)" fill="#263238"/>
          </g>
        </g>
      </g>
      <g id="Floor" transform="translate(59.574 6465.932)">
        <g id="Group_86" data-name="Group 86" transform="translate(0 0)">
          <g id="Group_85" data-name="Group 85">
            <path id="Path_28" data-name="Path 28" d="M892.015,459.694c0,.324-183.92.59-410.742.59-226.9,0-410.783-.265-410.783-.59s183.881-.592,410.783-.592C708.095,459.1,892.015,459.367,892.015,459.694Z" transform="translate(-70.49 -459.102)" fill="#263238"/>
          </g>
        </g>
      </g>
    </g>
  </g>
</svg>
