<svg xmlns="http://www.w3.org/2000/svg" width="48.355" height="48.471" viewBox="0 0 48.355 48.471">
  <g id="Group_16775" data-name="Group 16775" transform="translate(-1686.646 -23.765)">
    <g id="user_1_" data-name="user (1)" transform="translate(1686.646 23.765)">
      <circle id="Ellipse_652" data-name="Ellipse 652" cx="24.177" cy="24.177" r="24.177" fill="#fff"/>
      <path id="Path_11335" data-name="Path 11335" d="M99.533,96.348A9,9,0,0,0,95.8,94.624l-6.644-1.333a1.5,1.5,0,0,1-1.2-1.484V90.283a18.2,18.2,0,0,0,1.251-2.23,12.24,12.24,0,0,1,1.066-1.869,9.9,9.9,0,0,0,3.048-4.826,4.654,4.654,0,0,0-.427-3.575,26.834,26.834,0,0,0-.518-6.122c-.055-2.387-.488-3.729-1.578-4.9a4.685,4.685,0,0,0-2.814-1.181,4.917,4.917,0,0,1-1.033-.242A10.691,10.691,0,0,0,81.835,64c-3.99.164-8.894,2.7-10.536,7.228a17.2,17.2,0,0,0-.415,5.459l-.039,1.094a4.852,4.852,0,0,0-.4,3.575,9.887,9.887,0,0,0,3.069,4.85,13.3,13.3,0,0,1,1.063,1.86,18.829,18.829,0,0,0,1.26,2.221V91.81a1.505,1.505,0,0,1-1.206,1.484l-6.65,1.333a9.015,9.015,0,0,0-3.72,1.721,1.518,1.518,0,0,0-.179,2.205,24.118,24.118,0,0,0,35.626,0,1.518,1.518,0,0,0-.179-2.205Z" transform="translate(-57.663 -57.941)" fill="#455a64"/>
    </g>
  </g>
</svg>
