<svg id="checked" xmlns="http://www.w3.org/2000/svg" width="42.613" height="42.613" viewBox="0 0 42.613 42.613">
  <g id="Group_16228" data-name="Group 16228" transform="translate(10.118 5.354)">
    <g id="Group_16227" data-name="Group 16227">
      <path id="Path_11336" data-name="Path 11336" d="M152.845,64.8a1.606,1.606,0,0,0-2.271,0L131.307,84.013l-6.951-7.55a1.606,1.606,0,0,0-2.363,2.176l8.084,8.779a1.6,1.6,0,0,0,1.147.518h.034a1.608,1.608,0,0,0,1.134-.468l20.45-20.4A1.606,1.606,0,0,0,152.845,64.8Z" transform="translate(-121.568 -64.327)" fill="#fff"/>
    </g>
  </g>
  <g id="Group_16230" data-name="Group 16230">
    <g id="Group_16229" data-name="Group 16229">
      <path id="Path_11337" data-name="Path 11337" d="M41.007,19.7A1.606,1.606,0,0,0,39.4,21.307,18.095,18.095,0,1,1,21.307,3.212a1.606,1.606,0,1,0,0-3.212A21.307,21.307,0,1,0,42.613,21.307,1.606,1.606,0,0,0,41.007,19.7Z" fill="#fff"/>
    </g>
  </g>
</svg>
