<svg xmlns="http://www.w3.org/2000/svg" width="24.027" height="28.006" viewBox="0 0 24.027 28.006">
  <g id="pdf" transform="translate(-19.329 0.006)">
    <path id="Path_11744" data-name="Path 11744" d="M21.043,0H35.609l7.72,7.851v18.4A1.732,1.732,0,0,1,41.615,28H21.043a1.732,1.732,0,0,1-1.714-1.75V1.75A1.733,1.733,0,0,1,21.043,0Z" fill="#e2574c"/>
    <path id="Path_11745" data-name="Path 11745" d="M210.771,8.057l-6.084-.092A1.716,1.716,0,0,1,203,6.211V.171Z" transform="translate(-167.415 -0.177)" fill="#b53629"/>
    <path id="Path_11746" data-name="Path 11746" d="M98.037,136.355a.472.472,0,0,0,0-.935h-1.55a.484.484,0,0,0-.472.528v3.81c0,.34.193.528.455.528s.454-.188.454-.528v-1.046h.938a.44.44,0,0,0,.436-.474.432.432,0,0,0-.436-.462h-.938v-1.421Zm-5.24-.935H91.663a.5.5,0,0,0-.527.525v3.816a.5.5,0,0,0,.539.511h1.19a2.208,2.208,0,0,0,2.339-2.358A2.265,2.265,0,0,0,92.8,135.42Zm.054,3.911H92.16v-2.971h.623c.943,0,1.354.633,1.354,1.506C94.137,138.685,93.734,139.331,92.852,139.331ZM88.7,135.42H87.573a.473.473,0,0,0-.495.528v3.81a.479.479,0,1,0,.952,0v-1.112h.7a1.538,1.538,0,0,0,1.587-1.606A1.556,1.556,0,0,0,88.7,135.42Zm-.019,2.332H88.03v-1.437h.648a.722.722,0,0,1,0,1.437Z" transform="translate(-61.428 -122.958)" fill="#fff"/>
  </g>
</svg>
